{
    "asset" : {
        "generator" : "Khronos glTF Blender I/O v1.7.33",
        "version" : "2.0"
    },
    "scene" : 0,
    "scenes" : [
        {
            "name" : "Scene",
            "nodes" : [
                0,
                1,
                2
            ]
        }
    ],
    "nodes" : [
        {
            "mesh" : 0,
            "name" : "Road"
        },
        {
            "name" : "BezierCurve"
        },
        {
            "mesh" : 1,
            "name" : "EnvRef"
        }
    ],
    "materials" : [
        {
            "doubleSided" : true,
            "name" : "Road",
            "pbrMetallicRoughness" : {
                "baseColorTexture" : {
                    "index" : 0
                },
                "metallicFactor" : 0,
                "roughnessFactor" : 0.8616600632667542
            }
        },
        {
            "doubleSided" : true,
            "name" : "Ground",
            "pbrMetallicRoughness" : {
                "baseColorTexture" : {
                    "index" : 1
                },
                "metallicFactor" : 0,
                "roughnessFactor" : 0.5
            }
        }
    ],
    "meshes" : [
        {
            "name" : "Cube.002",
            "primitives" : [
                {
                    "attributes" : {
                        "POSITION" : 0,
                        "NORMAL" : 1,
                        "TEXCOORD_0" : 2
                    },
                    "indices" : 3,
                    "material" : 0
                }
            ]
        },
        {
            "name" : "Plane",
            "primitives" : [
                {
                    "attributes" : {
                        "POSITION" : 4,
                        "NORMAL" : 5,
                        "TEXCOORD_0" : 6
                    },
                    "indices" : 7,
                    "material" : 1
                }
            ]
        }
    ],
    "textures" : [
        {
            "sampler" : 0,
            "source" : 0
        },
        {
            "sampler" : 0,
            "source" : 1
        }
    ],
    "images" : [
        {
            "mimeType" : "image/png",
            "name" : "Road",
            "uri" : "Textures/Road.png"
        },
        {
            "mimeType" : "image/png",
            "name" : "HOGR_pixel",
            "uri" : "Textures/HOGR_pixel.png"
        }
    ],
    "accessors" : [
        {
            "bufferView" : 0,
            "componentType" : 5126,
            "count" : 2856,
            "max" : [
                8.142705917358398,
                0.5000003576278687,
                101.03153228759766
            ],
            "min" : [
                -12.079511642456055,
                -3.5762786865234375e-07,
                -99.50882720947266
            ],
            "type" : "VEC3"
        },
        {
            "bufferView" : 1,
            "componentType" : 5126,
            "count" : 2856,
            "type" : "VEC3"
        },
        {
            "bufferView" : 2,
            "componentType" : 5126,
            "count" : 2856,
            "type" : "VEC2"
        },
        {
            "bufferView" : 3,
            "componentType" : 5123,
            "count" : 4896,
            "type" : "SCALAR"
        },
        {
            "bufferView" : 4,
            "componentType" : 5126,
            "count" : 4,
            "max" : [
                50,
                0,
                100
            ],
            "min" : [
                -50,
                0,
                -100
            ],
            "type" : "VEC3"
        },
        {
            "bufferView" : 5,
            "componentType" : 5126,
            "count" : 4,
            "type" : "VEC3"
        },
        {
            "bufferView" : 6,
            "componentType" : 5126,
            "count" : 4,
            "type" : "VEC2"
        },
        {
            "bufferView" : 7,
            "componentType" : 5123,
            "count" : 6,
            "type" : "SCALAR"
        }
    ],
    "bufferViews" : [
        {
            "buffer" : 0,
            "byteLength" : 34272,
            "byteOffset" : 0
        },
        {
            "buffer" : 0,
            "byteLength" : 34272,
            "byteOffset" : 34272
        },
        {
            "buffer" : 0,
            "byteLength" : 22848,
            "byteOffset" : 68544
        },
        {
            "buffer" : 0,
            "byteLength" : 9792,
            "byteOffset" : 91392
        },
        {
            "buffer" : 0,
            "byteLength" : 48,
            "byteOffset" : 101184
        },
        {
            "buffer" : 0,
            "byteLength" : 48,
            "byteOffset" : 101232
        },
        {
            "buffer" : 0,
            "byteLength" : 32,
            "byteOffset" : 101280
        },
        {
            "buffer" : 0,
            "byteLength" : 12,
            "byteOffset" : 101312
        }
    ],
    "samplers" : [
        {
            "magFilter" : 9729,
            "minFilter" : 9987
        }
    ],
    "buffers" : [
        {
            "byteLength" : 101324,
            "uri" : "Curve01.bin"
        }
    ]
}
