{
    "asset" : {
        "generator" : "Khronos glTF Blender I/O v1.7.33",
        "version" : "2.0"
    },
    "scene" : 0,
    "scenes" : [
        {
            "name" : "Scene",
            "nodes" : [
                3,
                4
            ]
        }
    ],
    "nodes" : [
        {
            "mesh" : 0,
            "name" : "Spikes.001",
            "rotation" : [
                -1,
                0,
                0,
                1.6292068494294654e-07
            ]
        },
        {
            "mesh" : 1,
            "name" : "Spikes.002",
            "rotation" : [
                -1,
                0,
                0,
                1.6292068494294654e-07
            ]
        },
        {
            "mesh" : 2,
            "name" : "Spikes.003",
            "rotation" : [
                -1,
                0,
                0,
                1.6292068494294654e-07
            ]
        },
        {
            "children" : [
                0,
                1,
                2
            ],
            "mesh" : 3,
            "name" : "Orb",
            "translation" : [
                0,
                1.600000023841858,
                0
            ]
        },
        {
            "mesh" : 4,
            "name" : "Base"
        }
    ],
    "materials" : [
        {
            "doubleSided" : true,
            "name" : "Orb.Marble",
            "normalTexture" : {
                "index" : 0
            },
            "pbrMetallicRoughness" : {
                "baseColorTexture" : {
                    "index" : 1
                },
                "metallicFactor" : 0,
                "metallicRoughnessTexture" : {
                    "index" : 2
                }
            }
        }
    ],
    "meshes" : [
        {
            "name" : "Cone.001",
            "primitives" : [
                {
                    "attributes" : {
                        "POSITION" : 0,
                        "NORMAL" : 1,
                        "TEXCOORD_0" : 2
                    },
                    "indices" : 3
                }
            ]
        },
        {
            "name" : "Cone.002",
            "primitives" : [
                {
                    "attributes" : {
                        "POSITION" : 4,
                        "NORMAL" : 5,
                        "TEXCOORD_0" : 6
                    },
                    "indices" : 3
                }
            ]
        },
        {
            "name" : "Cone.003",
            "primitives" : [
                {
                    "attributes" : {
                        "POSITION" : 7,
                        "NORMAL" : 8,
                        "TEXCOORD_0" : 9
                    },
                    "indices" : 3
                }
            ]
        },
        {
            "name" : "Sphere",
            "primitives" : [
                {
                    "attributes" : {
                        "POSITION" : 10,
                        "NORMAL" : 11,
                        "TEXCOORD_0" : 12
                    },
                    "indices" : 13,
                    "material" : 0
                }
            ]
        },
        {
            "name" : "Plane",
            "primitives" : [
                {
                    "attributes" : {
                        "POSITION" : 14,
                        "NORMAL" : 15,
                        "TEXCOORD_0" : 16
                    },
                    "indices" : 17
                }
            ]
        }
    ],
    "textures" : [
        {
            "sampler" : 0,
            "source" : 0
        },
        {
            "sampler" : 0,
            "source" : 1
        },
        {
            "sampler" : 0,
            "source" : 2
        }
    ],
    "images" : [
        {
            "mimeType" : "image/png",
            "name" : "Marble_nrm",
            "uri" : "Textures/Marble_nrm.png"
        },
        {
            "mimeType" : "image/png",
            "name" : "Marble_alb",
            "uri" : "Textures/Marble_alb.png"
        },
        {
            "mimeType" : "image/png",
            "name" : "Marble_rgh",
            "uri" : "Textures/Marble_rgh.png"
        }
    ],
    "accessors" : [
        {
            "bufferView" : 0,
            "componentType" : 5126,
            "count" : 12,
            "max" : [
                1.299038052558899,
                1.5909901857376099,
                0.7500001192092896
            ],
            "min" : [
                -1.2990381717681885,
                -0.5303301215171814,
                -1.5
            ],
            "type" : "VEC3"
        },
        {
            "bufferView" : 1,
            "componentType" : 5126,
            "count" : 12,
            "type" : "VEC3"
        },
        {
            "bufferView" : 2,
            "componentType" : 5126,
            "count" : 12,
            "type" : "VEC2"
        },
        {
            "bufferView" : 3,
            "componentType" : 5123,
            "count" : 12,
            "type" : "SCALAR"
        },
        {
            "bufferView" : 4,
            "componentType" : 5126,
            "count" : 12,
            "max" : [
                1.299038052558899,
                1.5909901857376099,
                0.7500001192092896
            ],
            "min" : [
                -1.2990381717681885,
                -0.5303301215171814,
                -1.5
            ],
            "type" : "VEC3"
        },
        {
            "bufferView" : 5,
            "componentType" : 5126,
            "count" : 12,
            "type" : "VEC3"
        },
        {
            "bufferView" : 6,
            "componentType" : 5126,
            "count" : 12,
            "type" : "VEC2"
        },
        {
            "bufferView" : 7,
            "componentType" : 5126,
            "count" : 12,
            "max" : [
                1.299038052558899,
                1.5909901857376099,
                0.7500001192092896
            ],
            "min" : [
                -1.2990381717681885,
                -0.5303301215171814,
                -1.5
            ],
            "type" : "VEC3"
        },
        {
            "bufferView" : 8,
            "componentType" : 5126,
            "count" : 12,
            "type" : "VEC3"
        },
        {
            "bufferView" : 9,
            "componentType" : 5126,
            "count" : 12,
            "type" : "VEC2"
        },
        {
            "bufferView" : 10,
            "componentType" : 5126,
            "count" : 559,
            "max" : [
                0.9999997019767761,
                1,
                0.9999994039535522
            ],
            "min" : [
                -0.9999990463256836,
                -1,
                -0.9999987483024597
            ],
            "type" : "VEC3"
        },
        {
            "bufferView" : 11,
            "componentType" : 5126,
            "count" : 559,
            "type" : "VEC3"
        },
        {
            "bufferView" : 12,
            "componentType" : 5126,
            "count" : 559,
            "type" : "VEC2"
        },
        {
            "bufferView" : 13,
            "componentType" : 5123,
            "count" : 2880,
            "type" : "SCALAR"
        },
        {
            "bufferView" : 14,
            "componentType" : 5126,
            "count" : 96,
            "max" : [
                1.5,
                0,
                1.5
            ],
            "min" : [
                -1.5,
                -0.10000000149011612,
                -1.5
            ],
            "type" : "VEC3"
        },
        {
            "bufferView" : 15,
            "componentType" : 5126,
            "count" : 96,
            "type" : "VEC3"
        },
        {
            "bufferView" : 16,
            "componentType" : 5126,
            "count" : 96,
            "type" : "VEC2"
        },
        {
            "bufferView" : 17,
            "componentType" : 5123,
            "count" : 132,
            "type" : "SCALAR"
        }
    ],
    "bufferViews" : [
        {
            "buffer" : 0,
            "byteLength" : 144,
            "byteOffset" : 0
        },
        {
            "buffer" : 0,
            "byteLength" : 144,
            "byteOffset" : 144
        },
        {
            "buffer" : 0,
            "byteLength" : 96,
            "byteOffset" : 288
        },
        {
            "buffer" : 0,
            "byteLength" : 24,
            "byteOffset" : 384
        },
        {
            "buffer" : 0,
            "byteLength" : 144,
            "byteOffset" : 408
        },
        {
            "buffer" : 0,
            "byteLength" : 144,
            "byteOffset" : 552
        },
        {
            "buffer" : 0,
            "byteLength" : 96,
            "byteOffset" : 696
        },
        {
            "buffer" : 0,
            "byteLength" : 144,
            "byteOffset" : 792
        },
        {
            "buffer" : 0,
            "byteLength" : 144,
            "byteOffset" : 936
        },
        {
            "buffer" : 0,
            "byteLength" : 96,
            "byteOffset" : 1080
        },
        {
            "buffer" : 0,
            "byteLength" : 6708,
            "byteOffset" : 1176
        },
        {
            "buffer" : 0,
            "byteLength" : 6708,
            "byteOffset" : 7884
        },
        {
            "buffer" : 0,
            "byteLength" : 4472,
            "byteOffset" : 14592
        },
        {
            "buffer" : 0,
            "byteLength" : 5760,
            "byteOffset" : 19064
        },
        {
            "buffer" : 0,
            "byteLength" : 1152,
            "byteOffset" : 24824
        },
        {
            "buffer" : 0,
            "byteLength" : 1152,
            "byteOffset" : 25976
        },
        {
            "buffer" : 0,
            "byteLength" : 768,
            "byteOffset" : 27128
        },
        {
            "buffer" : 0,
            "byteLength" : 264,
            "byteOffset" : 27896
        }
    ],
    "samplers" : [
        {
            "magFilter" : 9729,
            "minFilter" : 9987
        }
    ],
    "buffers" : [
        {
            "byteLength" : 28160,
            "uri" : "VectormanItem.bin"
        }
    ]
}
