{
    "asset" : {
        "generator" : "Khronos glTF Blender I/O v1.7.33",
        "version" : "2.0"
    },
    "scene" : 0,
    "scenes" : [
        {
            "name" : "Scene",
            "nodes" : [
                1,
                2
            ]
        }
    ],
    "nodes" : [
        {
            "mesh" : 0,
            "name" : "Spikes",
            "rotation" : [
                -1,
                0,
                0,
                1.6292068494294654e-07
            ]
        },
        {
            "children" : [
                0
            ],
            "mesh" : 1,
            "name" : "Orb",
            "translation" : [
                0,
                1.600000023841858,
                0
            ]
        },
        {
            "mesh" : 2,
            "name" : "Base"
        }
    ],
    "meshes" : [
        {
            "name" : "Cone.001",
            "primitives" : [
                {
                    "attributes" : {
                        "POSITION" : 0,
                        "NORMAL" : 1,
                        "TEXCOORD_0" : 2
                    },
                    "indices" : 3
                }
            ]
        },
        {
            "name" : "Sphere",
            "primitives" : [
                {
                    "attributes" : {
                        "POSITION" : 4,
                        "NORMAL" : 5,
                        "TEXCOORD_0" : 6
                    },
                    "indices" : 7
                }
            ]
        },
        {
            "name" : "Plane",
            "primitives" : [
                {
                    "attributes" : {
                        "POSITION" : 8,
                        "NORMAL" : 9,
                        "TEXCOORD_0" : 10
                    },
                    "indices" : 11
                }
            ]
        }
    ],
    "accessors" : [
        {
            "bufferView" : 0,
            "componentType" : 5126,
            "count" : 12,
            "max" : [
                1.299038052558899,
                1.5909901857376099,
                0.7500001192092896
            ],
            "min" : [
                -1.2990381717681885,
                -0.5303301215171814,
                -1.5
            ],
            "type" : "VEC3"
        },
        {
            "bufferView" : 1,
            "componentType" : 5126,
            "count" : 12,
            "type" : "VEC3"
        },
        {
            "bufferView" : 2,
            "componentType" : 5126,
            "count" : 12,
            "type" : "VEC2"
        },
        {
            "bufferView" : 3,
            "componentType" : 5123,
            "count" : 12,
            "type" : "SCALAR"
        },
        {
            "bufferView" : 4,
            "componentType" : 5126,
            "count" : 559,
            "max" : [
                0.9999997019767761,
                1,
                0.9999994039535522
            ],
            "min" : [
                -0.9999990463256836,
                -1,
                -0.9999987483024597
            ],
            "type" : "VEC3"
        },
        {
            "bufferView" : 5,
            "componentType" : 5126,
            "count" : 559,
            "type" : "VEC3"
        },
        {
            "bufferView" : 6,
            "componentType" : 5126,
            "count" : 559,
            "type" : "VEC2"
        },
        {
            "bufferView" : 7,
            "componentType" : 5123,
            "count" : 2880,
            "type" : "SCALAR"
        },
        {
            "bufferView" : 8,
            "componentType" : 5126,
            "count" : 96,
            "max" : [
                1.5,
                0,
                1.5
            ],
            "min" : [
                -1.5,
                -0.10000000149011612,
                -1.5
            ],
            "type" : "VEC3"
        },
        {
            "bufferView" : 9,
            "componentType" : 5126,
            "count" : 96,
            "type" : "VEC3"
        },
        {
            "bufferView" : 10,
            "componentType" : 5126,
            "count" : 96,
            "type" : "VEC2"
        },
        {
            "bufferView" : 11,
            "componentType" : 5123,
            "count" : 132,
            "type" : "SCALAR"
        }
    ],
    "bufferViews" : [
        {
            "buffer" : 0,
            "byteLength" : 144,
            "byteOffset" : 0
        },
        {
            "buffer" : 0,
            "byteLength" : 144,
            "byteOffset" : 144
        },
        {
            "buffer" : 0,
            "byteLength" : 96,
            "byteOffset" : 288
        },
        {
            "buffer" : 0,
            "byteLength" : 24,
            "byteOffset" : 384
        },
        {
            "buffer" : 0,
            "byteLength" : 6708,
            "byteOffset" : 408
        },
        {
            "buffer" : 0,
            "byteLength" : 6708,
            "byteOffset" : 7116
        },
        {
            "buffer" : 0,
            "byteLength" : 4472,
            "byteOffset" : 13824
        },
        {
            "buffer" : 0,
            "byteLength" : 5760,
            "byteOffset" : 18296
        },
        {
            "buffer" : 0,
            "byteLength" : 1152,
            "byteOffset" : 24056
        },
        {
            "buffer" : 0,
            "byteLength" : 1152,
            "byteOffset" : 25208
        },
        {
            "buffer" : 0,
            "byteLength" : 768,
            "byteOffset" : 26360
        },
        {
            "buffer" : 0,
            "byteLength" : 264,
            "byteOffset" : 27128
        }
    ],
    "buffers" : [
        {
            "byteLength" : 27392,
            "uri" : "VectormanItem.bin"
        }
    ]
}
