{
    "asset" : {
        "generator" : "Khronos glTF Blender I/O v1.7.33",
        "version" : "2.0"
    },
    "scene" : 0,
    "scenes" : [
        {
            "name" : "Scene",
            "nodes" : [
                6,
                7
            ]
        }
    ],
    "nodes" : [
        {
            "mesh" : 0,
            "name" : "Spikes.001",
            "rotation" : [
                -1,
                0,
                0,
                1.6292068494294654e-07
            ]
        },
        {
            "children" : [
                0
            ],
            "name" : "Spikes.Center.001"
        },
        {
            "mesh" : 1,
            "name" : "Spikes.002",
            "rotation" : [
                -1,
                0,
                0,
                1.6292068494294654e-07
            ]
        },
        {
            "children" : [
                2
            ],
            "name" : "Spikes.Center.002"
        },
        {
            "mesh" : 2,
            "name" : "Spikes.003",
            "rotation" : [
                -1,
                0,
                0,
                1.6292068494294654e-07
            ]
        },
        {
            "children" : [
                4
            ],
            "name" : "Spikes.Center.003"
        },
        {
            "children" : [
                1,
                3,
                5
            ],
            "mesh" : 3,
            "name" : "Orb",
            "translation" : [
                0,
                1.600000023841858,
                0
            ]
        },
        {
            "mesh" : 4,
            "name" : "Base"
        }
    ],
    "materials" : [
        {
            "doubleSided" : true,
            "name" : "Spikes.Placeholder",
            "pbrMetallicRoughness" : {
                "baseColorFactor" : [
                    0.800000011920929,
                    0.800000011920929,
                    0.800000011920929,
                    1
                ],
                "metallicFactor" : 0,
                "roughnessFactor" : 0.5
            }
        },
        {
            "doubleSided" : true,
            "name" : "Orb.Marble",
            "normalTexture" : {
                "index" : 0
            },
            "pbrMetallicRoughness" : {
                "baseColorTexture" : {
                    "index" : 1
                },
                "metallicFactor" : 0,
                "metallicRoughnessTexture" : {
                    "index" : 2
                }
            }
        },
        {
            "doubleSided" : true,
            "name" : "Base.Placeholder",
            "pbrMetallicRoughness" : {
                "baseColorFactor" : [
                    0.800000011920929,
                    0.800000011920929,
                    0.800000011920929,
                    1
                ],
                "metallicFactor" : 0,
                "roughnessFactor" : 0.5
            }
        }
    ],
    "meshes" : [
        {
            "name" : "Cone.001",
            "primitives" : [
                {
                    "attributes" : {
                        "POSITION" : 0,
                        "NORMAL" : 1,
                        "TEXCOORD_0" : 2
                    },
                    "indices" : 3,
                    "material" : 0
                }
            ]
        },
        {
            "name" : "Cone.002",
            "primitives" : [
                {
                    "attributes" : {
                        "POSITION" : 4,
                        "NORMAL" : 5,
                        "TEXCOORD_0" : 6
                    },
                    "indices" : 3,
                    "material" : 0
                }
            ]
        },
        {
            "name" : "Cone.003",
            "primitives" : [
                {
                    "attributes" : {
                        "POSITION" : 7,
                        "NORMAL" : 8,
                        "TEXCOORD_0" : 9
                    },
                    "indices" : 3,
                    "material" : 0
                }
            ]
        },
        {
            "name" : "Sphere",
            "primitives" : [
                {
                    "attributes" : {
                        "POSITION" : 10,
                        "NORMAL" : 11,
                        "TEXCOORD_0" : 12
                    },
                    "indices" : 13,
                    "material" : 1
                }
            ]
        },
        {
            "name" : "Plane",
            "primitives" : [
                {
                    "attributes" : {
                        "POSITION" : 14,
                        "NORMAL" : 15,
                        "TEXCOORD_0" : 16
                    },
                    "indices" : 17,
                    "material" : 2
                }
            ]
        }
    ],
    "textures" : [
        {
            "sampler" : 0,
            "source" : 0
        },
        {
            "sampler" : 0,
            "source" : 1
        },
        {
            "sampler" : 0,
            "source" : 2
        }
    ],
    "images" : [
        {
            "mimeType" : "image/png",
            "name" : "Marble_nrm",
            "uri" : "Textures/Marble_nrm.png"
        },
        {
            "mimeType" : "image/png",
            "name" : "Marble_alb",
            "uri" : "Textures/Marble_alb.png"
        },
        {
            "mimeType" : "image/png",
            "name" : "Marble_rgh",
            "uri" : "Textures/Marble_rgh.png"
        }
    ],
    "accessors" : [
        {
            "bufferView" : 0,
            "componentType" : 5126,
            "count" : 48,
            "max" : [
                1.2413029670715332,
                1.4967093467712402,
                0.7333334684371948
            ],
            "min" : [
                -1.2413032054901123,
                -0.5303301215171814,
                -1.4166667461395264
            ],
            "type" : "VEC3"
        },
        {
            "bufferView" : 1,
            "componentType" : 5126,
            "count" : 48,
            "type" : "VEC3"
        },
        {
            "bufferView" : 2,
            "componentType" : 5126,
            "count" : 48,
            "type" : "VEC2"
        },
        {
            "bufferView" : 3,
            "componentType" : 5123,
            "count" : 60,
            "type" : "SCALAR"
        },
        {
            "bufferView" : 4,
            "componentType" : 5126,
            "count" : 48,
            "max" : [
                1.2413029670715332,
                1.4967093467712402,
                0.7333334684371948
            ],
            "min" : [
                -1.2413032054901123,
                -0.5303301215171814,
                -1.4166667461395264
            ],
            "type" : "VEC3"
        },
        {
            "bufferView" : 5,
            "componentType" : 5126,
            "count" : 48,
            "type" : "VEC3"
        },
        {
            "bufferView" : 6,
            "componentType" : 5126,
            "count" : 48,
            "type" : "VEC2"
        },
        {
            "bufferView" : 7,
            "componentType" : 5126,
            "count" : 48,
            "max" : [
                1.2413029670715332,
                1.4967093467712402,
                0.7333334684371948
            ],
            "min" : [
                -1.2413032054901123,
                -0.5303301215171814,
                -1.4166667461395264
            ],
            "type" : "VEC3"
        },
        {
            "bufferView" : 8,
            "componentType" : 5126,
            "count" : 48,
            "type" : "VEC3"
        },
        {
            "bufferView" : 9,
            "componentType" : 5126,
            "count" : 48,
            "type" : "VEC2"
        },
        {
            "bufferView" : 10,
            "componentType" : 5126,
            "count" : 559,
            "max" : [
                0.9999997019767761,
                1,
                0.9999994039535522
            ],
            "min" : [
                -0.9999990463256836,
                -1,
                -0.9999987483024597
            ],
            "type" : "VEC3"
        },
        {
            "bufferView" : 11,
            "componentType" : 5126,
            "count" : 559,
            "type" : "VEC3"
        },
        {
            "bufferView" : 12,
            "componentType" : 5126,
            "count" : 559,
            "type" : "VEC2"
        },
        {
            "bufferView" : 13,
            "componentType" : 5123,
            "count" : 2880,
            "type" : "SCALAR"
        },
        {
            "bufferView" : 14,
            "componentType" : 5126,
            "count" : 96,
            "max" : [
                1.5,
                0,
                1.5
            ],
            "min" : [
                -1.5,
                -0.10000000149011612,
                -1.5
            ],
            "type" : "VEC3"
        },
        {
            "bufferView" : 15,
            "componentType" : 5126,
            "count" : 96,
            "type" : "VEC3"
        },
        {
            "bufferView" : 16,
            "componentType" : 5126,
            "count" : 96,
            "type" : "VEC2"
        },
        {
            "bufferView" : 17,
            "componentType" : 5123,
            "count" : 132,
            "type" : "SCALAR"
        }
    ],
    "bufferViews" : [
        {
            "buffer" : 0,
            "byteLength" : 576,
            "byteOffset" : 0
        },
        {
            "buffer" : 0,
            "byteLength" : 576,
            "byteOffset" : 576
        },
        {
            "buffer" : 0,
            "byteLength" : 384,
            "byteOffset" : 1152
        },
        {
            "buffer" : 0,
            "byteLength" : 120,
            "byteOffset" : 1536
        },
        {
            "buffer" : 0,
            "byteLength" : 576,
            "byteOffset" : 1656
        },
        {
            "buffer" : 0,
            "byteLength" : 576,
            "byteOffset" : 2232
        },
        {
            "buffer" : 0,
            "byteLength" : 384,
            "byteOffset" : 2808
        },
        {
            "buffer" : 0,
            "byteLength" : 576,
            "byteOffset" : 3192
        },
        {
            "buffer" : 0,
            "byteLength" : 576,
            "byteOffset" : 3768
        },
        {
            "buffer" : 0,
            "byteLength" : 384,
            "byteOffset" : 4344
        },
        {
            "buffer" : 0,
            "byteLength" : 6708,
            "byteOffset" : 4728
        },
        {
            "buffer" : 0,
            "byteLength" : 6708,
            "byteOffset" : 11436
        },
        {
            "buffer" : 0,
            "byteLength" : 4472,
            "byteOffset" : 18144
        },
        {
            "buffer" : 0,
            "byteLength" : 5760,
            "byteOffset" : 22616
        },
        {
            "buffer" : 0,
            "byteLength" : 1152,
            "byteOffset" : 28376
        },
        {
            "buffer" : 0,
            "byteLength" : 1152,
            "byteOffset" : 29528
        },
        {
            "buffer" : 0,
            "byteLength" : 768,
            "byteOffset" : 30680
        },
        {
            "buffer" : 0,
            "byteLength" : 264,
            "byteOffset" : 31448
        }
    ],
    "samplers" : [
        {
            "magFilter" : 9729,
            "minFilter" : 9987
        }
    ],
    "buffers" : [
        {
            "byteLength" : 31712,
            "uri" : "VectormanItem.bin"
        }
    ]
}
