{
    "asset" : {
        "generator" : "Khronos glTF Blender I/O v1.8.19",
        "version" : "2.0"
    },
    "scene" : 0,
    "scenes" : [
        {
            "name" : "Scene",
            "nodes" : [
                0,
                1
            ]
        }
    ],
    "nodes" : [
        {
            "mesh" : 0,
            "name" : "Body"
        },
        {
            "mesh" : 1,
            "name" : "SidePanel"
        }
    ],
    "materials" : [
        {
            "doubleSided" : true,
            "name" : "Car.Body",
            "pbrMetallicRoughness" : {
                "baseColorTexture" : {
                    "index" : 0
                },
                "metallicFactor" : 0,
                "roughnessFactor" : 0.5
            }
        },
        {
            "alphaMode" : "BLEND",
            "doubleSided" : true,
            "name" : "Car.Highlights",
            "pbrMetallicRoughness" : {
                "baseColorTexture" : {
                    "index" : 1
                },
                "metallicFactor" : 0,
                "roughnessFactor" : 0.5
            }
        }
    ],
    "meshes" : [
        {
            "name" : "Cube.001",
            "primitives" : [
                {
                    "attributes" : {
                        "POSITION" : 0,
                        "NORMAL" : 1,
                        "TEXCOORD_0" : 2
                    },
                    "indices" : 3,
                    "material" : 0
                }
            ]
        },
        {
            "name" : "Cube.005",
            "primitives" : [
                {
                    "attributes" : {
                        "POSITION" : 4,
                        "NORMAL" : 5,
                        "TEXCOORD_0" : 6
                    },
                    "indices" : 7,
                    "material" : 1
                }
            ]
        }
    ],
    "textures" : [
        {
            "sampler" : 0,
            "source" : 0
        },
        {
            "sampler" : 0,
            "source" : 0
        }
    ],
    "images" : [
        {
            "mimeType" : "image/png",
            "name" : "Car",
            "uri" : "Car.png"
        }
    ],
    "accessors" : [
        {
            "bufferView" : 0,
            "componentType" : 5126,
            "count" : 139,
            "max" : [
                4.24138069152832,
                1.493253469467163,
                6.710785865783691
            ],
            "min" : [
                -4.24138069152832,
                -2.133543014526367,
                -3.954606294631958
            ],
            "type" : "VEC3"
        },
        {
            "bufferView" : 1,
            "componentType" : 5126,
            "count" : 139,
            "type" : "VEC3"
        },
        {
            "bufferView" : 2,
            "componentType" : 5126,
            "count" : 139,
            "type" : "VEC2"
        },
        {
            "bufferView" : 3,
            "componentType" : 5123,
            "count" : 204,
            "type" : "SCALAR"
        },
        {
            "bufferView" : 4,
            "componentType" : 5126,
            "count" : 24,
            "max" : [
                2.9962687492370605,
                1.6360752582550049,
                5.720577239990234
            ],
            "min" : [
                -2.9962687492370605,
                -1.8428597450256348,
                -4.024458408355713
            ],
            "type" : "VEC3"
        },
        {
            "bufferView" : 5,
            "componentType" : 5126,
            "count" : 24,
            "type" : "VEC3"
        },
        {
            "bufferView" : 6,
            "componentType" : 5126,
            "count" : 24,
            "type" : "VEC2"
        },
        {
            "bufferView" : 7,
            "componentType" : 5123,
            "count" : 36,
            "type" : "SCALAR"
        }
    ],
    "bufferViews" : [
        {
            "buffer" : 0,
            "byteLength" : 1668,
            "byteOffset" : 0
        },
        {
            "buffer" : 0,
            "byteLength" : 1668,
            "byteOffset" : 1668
        },
        {
            "buffer" : 0,
            "byteLength" : 1112,
            "byteOffset" : 3336
        },
        {
            "buffer" : 0,
            "byteLength" : 408,
            "byteOffset" : 4448
        },
        {
            "buffer" : 0,
            "byteLength" : 288,
            "byteOffset" : 4856
        },
        {
            "buffer" : 0,
            "byteLength" : 288,
            "byteOffset" : 5144
        },
        {
            "buffer" : 0,
            "byteLength" : 192,
            "byteOffset" : 5432
        },
        {
            "buffer" : 0,
            "byteLength" : 72,
            "byteOffset" : 5624
        }
    ],
    "samplers" : [
        {
            "magFilter" : 9729,
            "minFilter" : 9987
        }
    ],
    "buffers" : [
        {
            "byteLength" : 5696,
            "uri" : "Car.bin"
        }
    ]
}
