{
    "asset" : {
        "generator" : "Khronos glTF Blender I/O v1.7.33",
        "version" : "2.0"
    },
    "scene" : 0,
    "scenes" : [
        {
            "name" : "Scene",
            "nodes" : [
                0,
                1
            ]
        }
    ],
    "nodes" : [
        {
            "mesh" : 0,
            "name" : "Mountains",
            "scale" : [
                60,
                60,
                60
            ]
        },
        {
            "mesh" : 1,
            "name" : "Pyramid",
            "translation" : [
                0,
                3.5315868854522705,
                0
            ]
        }
    ],
    "materials" : [
        {
            "doubleSided" : true,
            "name" : "Onyx",
            "pbrMetallicRoughness" : {
                "baseColorFactor" : [
                    0,
                    0,
                    0,
                    1
                ],
                "metallicFactor" : 0.4000000059604645,
                "roughnessFactor" : 0.25600001215934753
            }
        },
        {
            "doubleSided" : true,
            "name" : "Base",
            "normalTexture" : {
                "index" : 0
            },
            "pbrMetallicRoughness" : {
                "baseColorTexture" : {
                    "index" : 1
                },
                "metallicFactor" : 0
            }
        }
    ],
    "meshes" : [
        {
            "name" : "Plane.002",
            "primitives" : [
                {
                    "attributes" : {
                        "POSITION" : 0,
                        "NORMAL" : 1,
                        "TEXCOORD_0" : 2
                    },
                    "indices" : 3,
                    "material" : 0
                }
            ]
        },
        {
            "name" : "Cube.004",
            "primitives" : [
                {
                    "attributes" : {
                        "POSITION" : 4,
                        "NORMAL" : 5,
                        "TEXCOORD_0" : 6
                    },
                    "indices" : 7,
                    "material" : 1
                }
            ]
        }
    ],
    "textures" : [
        {
            "sampler" : 0,
            "source" : 0
        },
        {
            "sampler" : 0,
            "source" : 1
        }
    ],
    "images" : [
        {
            "mimeType" : "image/png",
            "name" : "nrm_Base",
            "uri" : "Textures/nrm_Base.png"
        },
        {
            "mimeType" : "image/png",
            "name" : "alb_Base",
            "uri" : "Textures/alb_Base.png"
        }
    ],
    "accessors" : [
        {
            "bufferView" : 0,
            "componentType" : 5126,
            "count" : 15291,
            "max" : [
                1.0039509534835815,
                0.2558996379375458,
                1.0015755891799927
            ],
            "min" : [
                -1.0008971691131592,
                -0.0012332616606727242,
                -1.000577688217163
            ],
            "type" : "VEC3"
        },
        {
            "bufferView" : 1,
            "componentType" : 5126,
            "count" : 15291,
            "type" : "VEC3"
        },
        {
            "bufferView" : 2,
            "componentType" : 5126,
            "count" : 15291,
            "type" : "VEC2"
        },
        {
            "bufferView" : 3,
            "componentType" : 5123,
            "count" : 15291,
            "type" : "SCALAR"
        },
        {
            "bufferView" : 4,
            "componentType" : 5126,
            "count" : 196,
            "max" : [
                5.283435821533203,
                1,
                5.283435821533203
            ],
            "min" : [
                -5.283435821533203,
                -3,
                -5.283435821533203
            ],
            "type" : "VEC3"
        },
        {
            "bufferView" : 5,
            "componentType" : 5126,
            "count" : 196,
            "type" : "VEC3"
        },
        {
            "bufferView" : 6,
            "componentType" : 5126,
            "count" : 196,
            "type" : "VEC2"
        },
        {
            "bufferView" : 7,
            "componentType" : 5123,
            "count" : 624,
            "type" : "SCALAR"
        }
    ],
    "bufferViews" : [
        {
            "buffer" : 0,
            "byteLength" : 183492,
            "byteOffset" : 0
        },
        {
            "buffer" : 0,
            "byteLength" : 183492,
            "byteOffset" : 183492
        },
        {
            "buffer" : 0,
            "byteLength" : 122328,
            "byteOffset" : 366984
        },
        {
            "buffer" : 0,
            "byteLength" : 30582,
            "byteOffset" : 489312
        },
        {
            "buffer" : 0,
            "byteLength" : 2352,
            "byteOffset" : 519896
        },
        {
            "buffer" : 0,
            "byteLength" : 2352,
            "byteOffset" : 522248
        },
        {
            "buffer" : 0,
            "byteLength" : 1568,
            "byteOffset" : 524600
        },
        {
            "buffer" : 0,
            "byteLength" : 1248,
            "byteOffset" : 526168
        }
    ],
    "samplers" : [
        {
            "magFilter" : 9729,
            "minFilter" : 9987
        }
    ],
    "buffers" : [
        {
            "byteLength" : 527416,
            "uri" : "Landscape.bin"
        }
    ]
}
