{
    "asset" : {
        "generator" : "Khronos glTF Blender I/O v1.7.33",
        "version" : "2.0"
    },
    "scene" : 0,
    "scenes" : [
        {
            "name" : "Scene",
            "nodes" : [
                0,
                1,
                2,
                3,
                4,
                5,
                6
            ]
        }
    ],
    "nodes" : [
        {
            "mesh" : 0,
            "name" : "TriPyramid",
            "rotation" : [
                1,
                0,
                0,
                -1.6292068494294654e-07
            ]
        },
        {
            "mesh" : 1,
            "name" : "MarbleOrb"
        },
        {
            "mesh" : 2,
            "name" : "GlowRing"
        },
        {
            "mesh" : 3,
            "name" : "HexBase"
        },
        {
            "mesh" : 4,
            "name" : "SpikeRing"
        },
        {
            "mesh" : 5,
            "name" : "Band"
        },
        {
            "mesh" : 6,
            "name" : "Bit"
        }
    ],
    "materials" : [
        {
            "doubleSided" : true,
            "name" : "MarbleOrb",
            "normalTexture" : {
                "index" : 0
            },
            "pbrMetallicRoughness" : {
                "baseColorTexture" : {
                    "index" : 1
                },
                "metallicFactor" : 0,
                "roughnessFactor" : 0.5
            }
        },
        {
            "doubleSided" : true,
            "name" : "Metal",
            "pbrMetallicRoughness" : {
                "baseColorFactor" : [
                    0.35813117027282715,
                    0.35813117027282715,
                    0.35813117027282715,
                    1
                ],
                "metallicFactor" : 0.9120000004768372,
                "roughnessFactor" : 0.4000000059604645
            }
        },
        {
            "doubleSided" : true,
            "emissiveFactor" : [
                0.949908971786499,
                0.05263081565499306,
                1
            ],
            "name" : "Glow",
            "pbrMetallicRoughness" : {
                "baseColorFactor" : [
                    0.9473066926002502,
                    0.05286065861582756,
                    1.0000001192092896,
                    1
                ],
                "metallicFactor" : 0,
                "roughnessFactor" : 0.5
            }
        },
        {
            "doubleSided" : true,
            "name" : "Material.001",
            "pbrMetallicRoughness" : {
                "baseColorFactor" : [
                    0.800000011920929,
                    0.800000011920929,
                    0.800000011920929,
                    1
                ],
                "metallicFactor" : 0,
                "roughnessFactor" : 0.5
            }
        },
        {
            "doubleSided" : true,
            "name" : "Material.002",
            "pbrMetallicRoughness" : {
                "baseColorFactor" : [
                    0.800000011920929,
                    0.800000011920929,
                    0.800000011920929,
                    1
                ],
                "metallicFactor" : 0,
                "roughnessFactor" : 0.5
            }
        }
    ],
    "meshes" : [
        {
            "name" : "Cone",
            "primitives" : [
                {
                    "attributes" : {
                        "POSITION" : 0,
                        "NORMAL" : 1,
                        "TEXCOORD_0" : 2
                    },
                    "indices" : 3
                }
            ]
        },
        {
            "name" : "Sphere.001",
            "primitives" : [
                {
                    "attributes" : {
                        "POSITION" : 4,
                        "NORMAL" : 5,
                        "TEXCOORD_0" : 6
                    },
                    "indices" : 7,
                    "material" : 0
                }
            ]
        },
        {
            "name" : "Circle",
            "primitives" : [
                {
                    "attributes" : {
                        "POSITION" : 8,
                        "NORMAL" : 9,
                        "TEXCOORD_0" : 10
                    },
                    "indices" : 11,
                    "material" : 1
                },
                {
                    "attributes" : {
                        "POSITION" : 12,
                        "NORMAL" : 13,
                        "TEXCOORD_0" : 14
                    },
                    "indices" : 15,
                    "material" : 2
                }
            ]
        },
        {
            "name" : "Circle.002",
            "primitives" : [
                {
                    "attributes" : {
                        "POSITION" : 16,
                        "NORMAL" : 17,
                        "TEXCOORD_0" : 18
                    },
                    "indices" : 19
                }
            ]
        },
        {
            "name" : "Circle.004",
            "primitives" : [
                {
                    "attributes" : {
                        "POSITION" : 20,
                        "NORMAL" : 21,
                        "TEXCOORD_0" : 22
                    },
                    "indices" : 23
                }
            ]
        },
        {
            "name" : "Cylinder",
            "primitives" : [
                {
                    "attributes" : {
                        "POSITION" : 24,
                        "NORMAL" : 25,
                        "TEXCOORD_0" : 26
                    },
                    "indices" : 27,
                    "material" : 3
                }
            ]
        },
        {
            "extras" : {
                "targetNames" : [
                    "Key"
                ]
            },
            "name" : "Bit",
            "primitives" : [
                {
                    "attributes" : {
                        "POSITION" : 28,
                        "NORMAL" : 29,
                        "TEXCOORD_0" : 30
                    },
                    "indices" : 31,
                    "material" : 4,
                    "targets" : [
                        {
                            "POSITION" : 32,
                            "NORMAL" : 33
                        }
                    ]
                }
            ],
            "weights" : [
                0.5
            ]
        }
    ],
    "textures" : [
        {
            "sampler" : 0,
            "source" : 0
        },
        {
            "sampler" : 0,
            "source" : 1
        }
    ],
    "images" : [
        {
            "mimeType" : "image/png",
            "name" : "nrm_MarbleOrb",
            "uri" : "Textures/nrm_MarbleOrb.png"
        },
        {
            "mimeType" : "image/png",
            "name" : "alb_MarbleOrb",
            "uri" : "Textures/alb_MarbleOrb.png"
        }
    ],
    "accessors" : [
        {
            "bufferView" : 0,
            "componentType" : 5126,
            "count" : 48,
            "max" : [
                0.7466884255409241,
                0.8198033571243286,
                0.46488770842552185
            ],
            "min" : [
                -0.7466884851455688,
                -0.3333333134651184,
                -0.8284147381782532
            ],
            "type" : "VEC3"
        },
        {
            "bufferView" : 1,
            "componentType" : 5126,
            "count" : 48,
            "type" : "VEC3"
        },
        {
            "bufferView" : 2,
            "componentType" : 5126,
            "count" : 48,
            "type" : "VEC2"
        },
        {
            "bufferView" : 3,
            "componentType" : 5123,
            "count" : 60,
            "type" : "SCALAR"
        },
        {
            "bufferView" : 4,
            "componentType" : 5126,
            "count" : 559,
            "max" : [
                0.9999997019767761,
                1,
                0.9999994039535522
            ],
            "min" : [
                -0.9999990463256836,
                -1,
                -0.9999987483024597
            ],
            "type" : "VEC3"
        },
        {
            "bufferView" : 5,
            "componentType" : 5126,
            "count" : 559,
            "type" : "VEC3"
        },
        {
            "bufferView" : 6,
            "componentType" : 5126,
            "count" : 559,
            "type" : "VEC2"
        },
        {
            "bufferView" : 7,
            "componentType" : 5123,
            "count" : 2880,
            "type" : "SCALAR"
        },
        {
            "bufferView" : 8,
            "componentType" : 5126,
            "count" : 906,
            "max" : [
                0.9151635766029358,
                0.05000000074505806,
                0.9814210534095764
            ],
            "min" : [
                -0.9814209938049316,
                -0.05000000074505806,
                -0.9814210534095764
            ],
            "type" : "VEC3"
        },
        {
            "bufferView" : 9,
            "componentType" : 5126,
            "count" : 906,
            "type" : "VEC3"
        },
        {
            "bufferView" : 10,
            "componentType" : 5126,
            "count" : 906,
            "type" : "VEC2"
        },
        {
            "bufferView" : 11,
            "componentType" : 5123,
            "count" : 1356,
            "type" : "SCALAR"
        },
        {
            "bufferView" : 12,
            "componentType" : 5126,
            "count" : 1044,
            "max" : [
                0.9151635766029358,
                0.05000000074505806,
                1
            ],
            "min" : [
                -1,
                -0.05000000074505806,
                -1
            ],
            "type" : "VEC3"
        },
        {
            "bufferView" : 13,
            "componentType" : 5126,
            "count" : 1044,
            "type" : "VEC3"
        },
        {
            "bufferView" : 14,
            "componentType" : 5126,
            "count" : 1044,
            "type" : "VEC2"
        },
        {
            "bufferView" : 15,
            "componentType" : 5123,
            "count" : 1560,
            "type" : "SCALAR"
        },
        {
            "bufferView" : 16,
            "componentType" : 5126,
            "count" : 144,
            "max" : [
                0.866025447845459,
                0.02500000037252903,
                0.987500011920929
            ],
            "min" : [
                -0.866025447845459,
                -0.02500000037252903,
                -0.987500011920929
            ],
            "type" : "VEC3"
        },
        {
            "bufferView" : 17,
            "componentType" : 5126,
            "count" : 144,
            "type" : "VEC3"
        },
        {
            "bufferView" : 18,
            "componentType" : 5126,
            "count" : 144,
            "type" : "VEC2"
        },
        {
            "bufferView" : 19,
            "componentType" : 5123,
            "count" : 204,
            "type" : "SCALAR"
        },
        {
            "bufferView" : 20,
            "componentType" : 5126,
            "count" : 634,
            "max" : [
                1.0606603622436523,
                0.004999999888241291,
                1.0606602430343628
            ],
            "min" : [
                -1.0606601238250732,
                -0.004999999888241291,
                -1.0606601238250732
            ],
            "type" : "VEC3"
        },
        {
            "bufferView" : 21,
            "componentType" : 5126,
            "count" : 634,
            "type" : "VEC3"
        },
        {
            "bufferView" : 22,
            "componentType" : 5126,
            "count" : 634,
            "type" : "VEC2"
        },
        {
            "bufferView" : 23,
            "componentType" : 5123,
            "count" : 960,
            "type" : "SCALAR"
        },
        {
            "bufferView" : 24,
            "componentType" : 5126,
            "count" : 132,
            "max" : [
                1,
                0.14000000059604645,
                1
            ],
            "min" : [
                -1,
                -0.14000000059604645,
                -1
            ],
            "type" : "VEC3"
        },
        {
            "bufferView" : 25,
            "componentType" : 5126,
            "count" : 132,
            "type" : "VEC3"
        },
        {
            "bufferView" : 26,
            "componentType" : 5126,
            "count" : 132,
            "type" : "VEC2"
        },
        {
            "bufferView" : 27,
            "componentType" : 5123,
            "count" : 768,
            "type" : "SCALAR"
        },
        {
            "bufferView" : 28,
            "componentType" : 5126,
            "count" : 240,
            "max" : [
                1.788852334022522,
                2,
                1.7012983560562134
            ],
            "min" : [
                -1.4472146034240723,
                -2,
                -1.7012983560562134
            ],
            "type" : "VEC3"
        },
        {
            "bufferView" : 29,
            "componentType" : 5126,
            "count" : 240,
            "type" : "VEC3"
        },
        {
            "bufferView" : 30,
            "componentType" : 5126,
            "count" : 240,
            "type" : "VEC2"
        },
        {
            "bufferView" : 31,
            "componentType" : 5123,
            "count" : 240,
            "type" : "SCALAR"
        },
        {
            "bufferView" : 32,
            "componentType" : 5126,
            "count" : 240,
            "max" : [
                4.341643810272217,
                6,
                5.10389518737793
            ],
            "min" : [
                -5.3665571212768555,
                -6,
                -5.10389518737793
            ],
            "type" : "VEC3"
        },
        {
            "bufferView" : 33,
            "componentType" : 5126,
            "count" : 240,
            "type" : "VEC3"
        }
    ],
    "bufferViews" : [
        {
            "buffer" : 0,
            "byteLength" : 576,
            "byteOffset" : 0
        },
        {
            "buffer" : 0,
            "byteLength" : 576,
            "byteOffset" : 576
        },
        {
            "buffer" : 0,
            "byteLength" : 384,
            "byteOffset" : 1152
        },
        {
            "buffer" : 0,
            "byteLength" : 120,
            "byteOffset" : 1536
        },
        {
            "buffer" : 0,
            "byteLength" : 6708,
            "byteOffset" : 1656
        },
        {
            "buffer" : 0,
            "byteLength" : 6708,
            "byteOffset" : 8364
        },
        {
            "buffer" : 0,
            "byteLength" : 4472,
            "byteOffset" : 15072
        },
        {
            "buffer" : 0,
            "byteLength" : 5760,
            "byteOffset" : 19544
        },
        {
            "buffer" : 0,
            "byteLength" : 10872,
            "byteOffset" : 25304
        },
        {
            "buffer" : 0,
            "byteLength" : 10872,
            "byteOffset" : 36176
        },
        {
            "buffer" : 0,
            "byteLength" : 7248,
            "byteOffset" : 47048
        },
        {
            "buffer" : 0,
            "byteLength" : 2712,
            "byteOffset" : 54296
        },
        {
            "buffer" : 0,
            "byteLength" : 12528,
            "byteOffset" : 57008
        },
        {
            "buffer" : 0,
            "byteLength" : 12528,
            "byteOffset" : 69536
        },
        {
            "buffer" : 0,
            "byteLength" : 8352,
            "byteOffset" : 82064
        },
        {
            "buffer" : 0,
            "byteLength" : 3120,
            "byteOffset" : 90416
        },
        {
            "buffer" : 0,
            "byteLength" : 1728,
            "byteOffset" : 93536
        },
        {
            "buffer" : 0,
            "byteLength" : 1728,
            "byteOffset" : 95264
        },
        {
            "buffer" : 0,
            "byteLength" : 1152,
            "byteOffset" : 96992
        },
        {
            "buffer" : 0,
            "byteLength" : 408,
            "byteOffset" : 98144
        },
        {
            "buffer" : 0,
            "byteLength" : 7608,
            "byteOffset" : 98552
        },
        {
            "buffer" : 0,
            "byteLength" : 7608,
            "byteOffset" : 106160
        },
        {
            "buffer" : 0,
            "byteLength" : 5072,
            "byteOffset" : 113768
        },
        {
            "buffer" : 0,
            "byteLength" : 1920,
            "byteOffset" : 118840
        },
        {
            "buffer" : 0,
            "byteLength" : 1584,
            "byteOffset" : 120760
        },
        {
            "buffer" : 0,
            "byteLength" : 1584,
            "byteOffset" : 122344
        },
        {
            "buffer" : 0,
            "byteLength" : 1056,
            "byteOffset" : 123928
        },
        {
            "buffer" : 0,
            "byteLength" : 1536,
            "byteOffset" : 124984
        },
        {
            "buffer" : 0,
            "byteLength" : 2880,
            "byteOffset" : 126520
        },
        {
            "buffer" : 0,
            "byteLength" : 2880,
            "byteOffset" : 129400
        },
        {
            "buffer" : 0,
            "byteLength" : 1920,
            "byteOffset" : 132280
        },
        {
            "buffer" : 0,
            "byteLength" : 480,
            "byteOffset" : 134200
        },
        {
            "buffer" : 0,
            "byteLength" : 2880,
            "byteOffset" : 134680
        },
        {
            "buffer" : 0,
            "byteLength" : 2880,
            "byteOffset" : 137560
        }
    ],
    "samplers" : [
        {
            "magFilter" : 9729,
            "minFilter" : 9987
        }
    ],
    "buffers" : [
        {
            "byteLength" : 140440,
            "uri" : "Elements.bin"
        }
    ]
}
