{
    "asset" : {
        "generator" : "Khronos glTF Blender I/O v1.8.19",
        "version" : "2.0"
    },
    "scene" : 0,
    "scenes" : [
        {
            "name" : "Scene",
            "nodes" : [
                0,
                1,
                2,
                3,
                4,
                5,
                6,
                7
            ]
        }
    ],
    "nodes" : [
        {
            "mesh" : 0,
            "name" : "South Island"
        },
        {
            "name" : "RoadPath"
        },
        {
            "mesh" : 1,
            "name" : "Road"
        },
        {
            "mesh" : 2,
            "name" : "Columns",
            "translation" : [
                863.0125732421875,
                0,
                0
            ]
        },
        {
            "mesh" : 3,
            "name" : "Columns.001",
            "translation" : [
                -3454.142578125,
                0,
                0
            ]
        },
        {
            "mesh" : 4,
            "name" : "Columns.002",
            "translation" : [
                7735.0166015625,
                0,
                0
            ]
        },
        {
            "mesh" : 5,
            "name" : "Tunnel",
            "translation" : [
                2079.4287109375,
                0,
                0
            ]
        },
        {
            "mesh" : 6,
            "name" : "Tunnel.001",
            "translation" : [
                4501.501953125,
                1.2101515531539917,
                0
            ]
        }
    ],
    "materials" : [
        {
            "doubleSided" : true,
            "name" : "Island",
            "pbrMetallicRoughness" : {
                "baseColorTexture" : {
                    "index" : 0
                },
                "metallicFactor" : 0
            }
        },
        {
            "doubleSided" : true,
            "name" : "Road",
            "pbrMetallicRoughness" : {
                "baseColorTexture" : {
                    "index" : 1
                },
                "metallicFactor" : 0,
                "roughnessFactor" : 0.5
            }
        },
        {
            "doubleSided" : true,
            "name" : "Tunnel",
            "pbrMetallicRoughness" : {
                "baseColorFactor" : [
                    0.0836329460144043,
                    0.0836329460144043,
                    0.0836329460144043,
                    1
                ],
                "roughnessFactor" : 0.5
            }
        }
    ],
    "meshes" : [
        {
            "name" : "Plane",
            "primitives" : [
                {
                    "attributes" : {
                        "POSITION" : 0,
                        "NORMAL" : 1,
                        "TEXCOORD_0" : 2
                    },
                    "indices" : 3,
                    "material" : 0
                }
            ]
        },
        {
            "name" : "Plane.003",
            "primitives" : [
                {
                    "attributes" : {
                        "POSITION" : 4,
                        "NORMAL" : 5,
                        "TEXCOORD_0" : 6
                    },
                    "indices" : 7,
                    "material" : 1
                }
            ]
        },
        {
            "name" : "Plane.002",
            "primitives" : [
                {
                    "attributes" : {
                        "POSITION" : 8,
                        "NORMAL" : 9,
                        "TEXCOORD_0" : 10
                    },
                    "indices" : 11,
                    "material" : 1
                }
            ]
        },
        {
            "name" : "Plane.004",
            "primitives" : [
                {
                    "attributes" : {
                        "POSITION" : 12,
                        "NORMAL" : 13,
                        "TEXCOORD_0" : 14
                    },
                    "indices" : 15,
                    "material" : 1
                }
            ]
        },
        {
            "name" : "Plane.005",
            "primitives" : [
                {
                    "attributes" : {
                        "POSITION" : 16,
                        "NORMAL" : 17,
                        "TEXCOORD_0" : 18
                    },
                    "indices" : 19,
                    "material" : 1
                }
            ]
        },
        {
            "name" : "Cube.001",
            "primitives" : [
                {
                    "attributes" : {
                        "POSITION" : 20,
                        "NORMAL" : 21,
                        "TEXCOORD_0" : 22
                    },
                    "indices" : 23,
                    "material" : 2
                }
            ]
        },
        {
            "name" : "Cube.003",
            "primitives" : [
                {
                    "attributes" : {
                        "POSITION" : 24,
                        "NORMAL" : 25,
                        "TEXCOORD_0" : 26
                    },
                    "indices" : 27,
                    "material" : 2
                }
            ]
        }
    ],
    "textures" : [
        {
            "sampler" : 0,
            "source" : 0
        },
        {
            "sampler" : 0,
            "source" : 1
        }
    ],
    "images" : [
        {
            "mimeType" : "image/png",
            "name" : "Turf",
            "uri" : "Textures/Turf.png"
        },
        {
            "mimeType" : "image/png",
            "name" : "Road",
            "uri" : "Textures/Road.png"
        }
    ],
    "accessors" : [
        {
            "bufferView" : 0,
            "componentType" : 5126,
            "count" : 902,
            "max" : [
                372.7471008300781,
                0,
                501.9759521484375
            ],
            "min" : [
                -414.7391662597656,
                -32,
                -622.3457641601562
            ],
            "type" : "VEC3"
        },
        {
            "bufferView" : 1,
            "componentType" : 5126,
            "count" : 902,
            "type" : "VEC3"
        },
        {
            "bufferView" : 2,
            "componentType" : 5126,
            "count" : 902,
            "type" : "VEC2"
        },
        {
            "bufferView" : 3,
            "componentType" : 5123,
            "count" : 1932,
            "type" : "SCALAR"
        },
        {
            "bufferView" : 4,
            "componentType" : 5126,
            "count" : 217958,
            "max" : [
                311.2203369140625,
                29.92158317565918,
                469.9826965332031
            ],
            "min" : [
                -382.3067321777344,
                -1.5334059000015259,
                -588.733642578125
            ],
            "type" : "VEC3"
        },
        {
            "bufferView" : 5,
            "componentType" : 5126,
            "count" : 217958,
            "type" : "VEC3"
        },
        {
            "bufferView" : 6,
            "componentType" : 5126,
            "count" : 217958,
            "type" : "VEC2"
        },
        {
            "bufferView" : 7,
            "componentType" : 5125,
            "count" : 326952,
            "type" : "SCALAR"
        },
        {
            "bufferView" : 8,
            "componentType" : 5126,
            "count" : 10944,
            "max" : [
                -639.9307861328125,
                28.957151412963867,
                319.6845397949219
            ],
            "min" : [
                -821.433837890625,
                -4.376760482788086,
                135.28738403320312
            ],
            "type" : "VEC3"
        },
        {
            "bufferView" : 9,
            "componentType" : 5126,
            "count" : 10944,
            "type" : "VEC3"
        },
        {
            "bufferView" : 10,
            "componentType" : 5126,
            "count" : 10944,
            "type" : "VEC2"
        },
        {
            "bufferView" : 11,
            "componentType" : 5123,
            "count" : 15552,
            "type" : "SCALAR"
        },
        {
            "bufferView" : 12,
            "componentType" : 5126,
            "count" : 6156,
            "max" : [
                3687.464111328125,
                8.886222839355469,
                23.674392700195312
            ],
            "min" : [
                3559.14111328125,
                -4.373147487640381,
                -220.8240203857422
            ],
            "type" : "VEC3"
        },
        {
            "bufferView" : 13,
            "componentType" : 5126,
            "count" : 6156,
            "type" : "VEC3"
        },
        {
            "bufferView" : 14,
            "componentType" : 5126,
            "count" : 6156,
            "type" : "VEC2"
        },
        {
            "bufferView" : 15,
            "componentType" : 5123,
            "count" : 8748,
            "type" : "SCALAR"
        },
        {
            "bufferView" : 16,
            "componentType" : 5126,
            "count" : 26904,
            "max" : [
                -7799.79736328125,
                29.702890396118164,
                -326.5197448730469
            ],
            "min" : [
                -8052.53515625,
                -3.96732234954834,
                -588.4741821289062
            ],
            "type" : "VEC3"
        },
        {
            "bufferView" : 17,
            "componentType" : 5126,
            "count" : 26904,
            "type" : "VEC3"
        },
        {
            "bufferView" : 18,
            "componentType" : 5126,
            "count" : 26904,
            "type" : "VEC2"
        },
        {
            "bufferView" : 19,
            "componentType" : 5123,
            "count" : 38232,
            "type" : "SCALAR"
        },
        {
            "bufferView" : 20,
            "componentType" : 5126,
            "count" : 9776,
            "max" : [
                -2105.034912109375,
                14.413265228271484,
                -256.9013977050781
            ],
            "min" : [
                -2307.85400390625,
                -3.2759194374084473,
                -334.6407165527344
            ],
            "type" : "VEC3"
        },
        {
            "bufferView" : 21,
            "componentType" : 5126,
            "count" : 9776,
            "type" : "VEC3"
        },
        {
            "bufferView" : 22,
            "componentType" : 5126,
            "count" : 9776,
            "type" : "VEC2"
        },
        {
            "bufferView" : 23,
            "componentType" : 5123,
            "count" : 13536,
            "type" : "SCALAR"
        },
        {
            "bufferView" : 24,
            "componentType" : 5126,
            "count" : 5200,
            "max" : [
                -4580.72119140625,
                11.112443923950195,
                212.6200714111328
            ],
            "min" : [
                -4628.69873046875,
                -1.4339903593063354,
                92.24864196777344
            ],
            "type" : "VEC3"
        },
        {
            "bufferView" : 25,
            "componentType" : 5126,
            "count" : 5200,
            "type" : "VEC3"
        },
        {
            "bufferView" : 26,
            "componentType" : 5126,
            "count" : 5200,
            "type" : "VEC2"
        },
        {
            "bufferView" : 27,
            "componentType" : 5123,
            "count" : 7200,
            "type" : "SCALAR"
        }
    ],
    "bufferViews" : [
        {
            "buffer" : 0,
            "byteLength" : 10824,
            "byteOffset" : 0
        },
        {
            "buffer" : 0,
            "byteLength" : 10824,
            "byteOffset" : 10824
        },
        {
            "buffer" : 0,
            "byteLength" : 7216,
            "byteOffset" : 21648
        },
        {
            "buffer" : 0,
            "byteLength" : 3864,
            "byteOffset" : 28864
        },
        {
            "buffer" : 0,
            "byteLength" : 2615496,
            "byteOffset" : 32728
        },
        {
            "buffer" : 0,
            "byteLength" : 2615496,
            "byteOffset" : 2648224
        },
        {
            "buffer" : 0,
            "byteLength" : 1743664,
            "byteOffset" : 5263720
        },
        {
            "buffer" : 0,
            "byteLength" : 1307808,
            "byteOffset" : 7007384
        },
        {
            "buffer" : 0,
            "byteLength" : 131328,
            "byteOffset" : 8315192
        },
        {
            "buffer" : 0,
            "byteLength" : 131328,
            "byteOffset" : 8446520
        },
        {
            "buffer" : 0,
            "byteLength" : 87552,
            "byteOffset" : 8577848
        },
        {
            "buffer" : 0,
            "byteLength" : 31104,
            "byteOffset" : 8665400
        },
        {
            "buffer" : 0,
            "byteLength" : 73872,
            "byteOffset" : 8696504
        },
        {
            "buffer" : 0,
            "byteLength" : 73872,
            "byteOffset" : 8770376
        },
        {
            "buffer" : 0,
            "byteLength" : 49248,
            "byteOffset" : 8844248
        },
        {
            "buffer" : 0,
            "byteLength" : 17496,
            "byteOffset" : 8893496
        },
        {
            "buffer" : 0,
            "byteLength" : 322848,
            "byteOffset" : 8910992
        },
        {
            "buffer" : 0,
            "byteLength" : 322848,
            "byteOffset" : 9233840
        },
        {
            "buffer" : 0,
            "byteLength" : 215232,
            "byteOffset" : 9556688
        },
        {
            "buffer" : 0,
            "byteLength" : 76464,
            "byteOffset" : 9771920
        },
        {
            "buffer" : 0,
            "byteLength" : 117312,
            "byteOffset" : 9848384
        },
        {
            "buffer" : 0,
            "byteLength" : 117312,
            "byteOffset" : 9965696
        },
        {
            "buffer" : 0,
            "byteLength" : 78208,
            "byteOffset" : 10083008
        },
        {
            "buffer" : 0,
            "byteLength" : 27072,
            "byteOffset" : 10161216
        },
        {
            "buffer" : 0,
            "byteLength" : 62400,
            "byteOffset" : 10188288
        },
        {
            "buffer" : 0,
            "byteLength" : 62400,
            "byteOffset" : 10250688
        },
        {
            "buffer" : 0,
            "byteLength" : 41600,
            "byteOffset" : 10313088
        },
        {
            "buffer" : 0,
            "byteLength" : 14400,
            "byteOffset" : 10354688
        }
    ],
    "samplers" : [
        {
            "magFilter" : 9729,
            "minFilter" : 9987
        }
    ],
    "buffers" : [
        {
            "byteLength" : 10369088,
            "uri" : "Islands01.bin"
        }
    ]
}
