{
    "asset" : {
        "generator" : "Khronos glTF Blender I/O v1.7.33",
        "version" : "2.0"
    },
    "scene" : 0,
    "scenes" : [
        {
            "name" : "Scene",
            "nodes" : [
                0,
                1,
                2,
                3,
                4,
                5,
                6
            ]
        }
    ],
    "nodes" : [
        {
            "mesh" : 0,
            "name" : "South Island"
        },
        {
            "name" : "RoadPath"
        },
        {
            "mesh" : 1,
            "name" : "Road"
        },
        {
            "mesh" : 2,
            "name" : "Columns",
            "translation" : [
                863.0125732421875,
                0,
                0
            ]
        },
        {
            "mesh" : 3,
            "name" : "Columns.001",
            "translation" : [
                -3454.142578125,
                0,
                0
            ]
        },
        {
            "mesh" : 4,
            "name" : "Columns.002",
            "translation" : [
                7735.0166015625,
                0,
                0
            ]
        },
        {
            "mesh" : 5,
            "name" : "Lamp",
            "translation" : [
                0,
                1.7454593181610107,
                0
            ]
        }
    ],
    "materials" : [
        {
            "doubleSided" : true,
            "name" : "Island",
            "pbrMetallicRoughness" : {
                "baseColorTexture" : {
                    "index" : 0
                },
                "metallicFactor" : 0
            }
        },
        {
            "doubleSided" : true,
            "name" : "Road",
            "pbrMetallicRoughness" : {
                "baseColorTexture" : {
                    "index" : 1
                },
                "metallicFactor" : 0,
                "roughnessFactor" : 0.5
            }
        }
    ],
    "meshes" : [
        {
            "name" : "Plane",
            "primitives" : [
                {
                    "attributes" : {
                        "POSITION" : 0,
                        "NORMAL" : 1,
                        "TEXCOORD_0" : 2
                    },
                    "indices" : 3,
                    "material" : 0
                }
            ]
        },
        {
            "name" : "Plane.003",
            "primitives" : [
                {
                    "attributes" : {
                        "POSITION" : 4,
                        "NORMAL" : 5,
                        "TEXCOORD_0" : 6
                    },
                    "indices" : 7,
                    "material" : 1
                }
            ]
        },
        {
            "name" : "Plane.002",
            "primitives" : [
                {
                    "attributes" : {
                        "POSITION" : 8,
                        "NORMAL" : 9,
                        "TEXCOORD_0" : 10
                    },
                    "indices" : 11,
                    "material" : 1
                }
            ]
        },
        {
            "name" : "Plane.004",
            "primitives" : [
                {
                    "attributes" : {
                        "POSITION" : 12,
                        "NORMAL" : 13,
                        "TEXCOORD_0" : 14
                    },
                    "indices" : 15,
                    "material" : 1
                }
            ]
        },
        {
            "name" : "Plane.005",
            "primitives" : [
                {
                    "attributes" : {
                        "POSITION" : 16,
                        "NORMAL" : 17,
                        "TEXCOORD_0" : 18
                    },
                    "indices" : 19,
                    "material" : 1
                }
            ]
        },
        {
            "name" : "Cube",
            "primitives" : [
                {
                    "attributes" : {
                        "POSITION" : 20,
                        "NORMAL" : 21,
                        "TEXCOORD_0" : 22
                    },
                    "indices" : 23
                }
            ]
        }
    ],
    "textures" : [
        {
            "sampler" : 0,
            "source" : 0
        },
        {
            "sampler" : 0,
            "source" : 1
        }
    ],
    "images" : [
        {
            "mimeType" : "image/png",
            "name" : "Turf",
            "uri" : "Textures/Turf.png"
        },
        {
            "mimeType" : "image/png",
            "name" : "Road",
            "uri" : "Textures/Road.png"
        }
    ],
    "accessors" : [
        {
            "bufferView" : 0,
            "componentType" : 5126,
            "count" : 544,
            "max" : [
                372.7471008300781,
                0,
                501.9759521484375
            ],
            "min" : [
                -414.7391662597656,
                -32.000244140625,
                -622.3457641601562
            ],
            "type" : "VEC3"
        },
        {
            "bufferView" : 1,
            "componentType" : 5126,
            "count" : 544,
            "type" : "VEC3"
        },
        {
            "bufferView" : 2,
            "componentType" : 5126,
            "count" : 544,
            "type" : "VEC2"
        },
        {
            "bufferView" : 3,
            "componentType" : 5123,
            "count" : 804,
            "type" : "SCALAR"
        },
        {
            "bufferView" : 4,
            "componentType" : 5126,
            "count" : 217958,
            "max" : [
                311.2203369140625,
                29.92158317565918,
                469.9826965332031
            ],
            "min" : [
                -382.3067321777344,
                -1.5334059000015259,
                -588.733642578125
            ],
            "type" : "VEC3"
        },
        {
            "bufferView" : 5,
            "componentType" : 5126,
            "count" : 217958,
            "type" : "VEC3"
        },
        {
            "bufferView" : 6,
            "componentType" : 5126,
            "count" : 217958,
            "type" : "VEC2"
        },
        {
            "bufferView" : 7,
            "componentType" : 5125,
            "count" : 326952,
            "type" : "SCALAR"
        },
        {
            "bufferView" : 8,
            "componentType" : 5126,
            "count" : 10944,
            "max" : [
                -639.9307861328125,
                28.957151412963867,
                319.6845397949219
            ],
            "min" : [
                -821.433837890625,
                -4.376760482788086,
                135.28738403320312
            ],
            "type" : "VEC3"
        },
        {
            "bufferView" : 9,
            "componentType" : 5126,
            "count" : 10944,
            "type" : "VEC3"
        },
        {
            "bufferView" : 10,
            "componentType" : 5126,
            "count" : 10944,
            "type" : "VEC2"
        },
        {
            "bufferView" : 11,
            "componentType" : 5123,
            "count" : 15552,
            "type" : "SCALAR"
        },
        {
            "bufferView" : 12,
            "componentType" : 5126,
            "count" : 6156,
            "max" : [
                3687.464111328125,
                8.886222839355469,
                23.674392700195312
            ],
            "min" : [
                3559.14111328125,
                -4.373147487640381,
                -220.8240203857422
            ],
            "type" : "VEC3"
        },
        {
            "bufferView" : 13,
            "componentType" : 5126,
            "count" : 6156,
            "type" : "VEC3"
        },
        {
            "bufferView" : 14,
            "componentType" : 5126,
            "count" : 6156,
            "type" : "VEC2"
        },
        {
            "bufferView" : 15,
            "componentType" : 5123,
            "count" : 8748,
            "type" : "SCALAR"
        },
        {
            "bufferView" : 16,
            "componentType" : 5126,
            "count" : 26904,
            "max" : [
                -7799.79736328125,
                29.702890396118164,
                -326.5197448730469
            ],
            "min" : [
                -8052.53515625,
                -3.96732234954834,
                -588.4741821289062
            ],
            "type" : "VEC3"
        },
        {
            "bufferView" : 17,
            "componentType" : 5126,
            "count" : 26904,
            "type" : "VEC3"
        },
        {
            "bufferView" : 18,
            "componentType" : 5126,
            "count" : 26904,
            "type" : "VEC2"
        },
        {
            "bufferView" : 19,
            "componentType" : 5123,
            "count" : 38232,
            "type" : "SCALAR"
        },
        {
            "bufferView" : 20,
            "componentType" : 5126,
            "count" : 121618,
            "max" : [
                309.1192321777344,
                30.40581703186035,
                467.3371887207031
            ],
            "min" : [
                -382.85028076171875,
                -1.277023196220398,
                -586.6815185546875
            ],
            "type" : "VEC3"
        },
        {
            "bufferView" : 21,
            "componentType" : 5126,
            "count" : 121618,
            "type" : "VEC3"
        },
        {
            "bufferView" : 22,
            "componentType" : 5126,
            "count" : 121618,
            "type" : "VEC2"
        },
        {
            "bufferView" : 23,
            "componentType" : 5125,
            "count" : 171696,
            "type" : "SCALAR"
        }
    ],
    "bufferViews" : [
        {
            "buffer" : 0,
            "byteLength" : 6528,
            "byteOffset" : 0
        },
        {
            "buffer" : 0,
            "byteLength" : 6528,
            "byteOffset" : 6528
        },
        {
            "buffer" : 0,
            "byteLength" : 4352,
            "byteOffset" : 13056
        },
        {
            "buffer" : 0,
            "byteLength" : 1608,
            "byteOffset" : 17408
        },
        {
            "buffer" : 0,
            "byteLength" : 2615496,
            "byteOffset" : 19016
        },
        {
            "buffer" : 0,
            "byteLength" : 2615496,
            "byteOffset" : 2634512
        },
        {
            "buffer" : 0,
            "byteLength" : 1743664,
            "byteOffset" : 5250008
        },
        {
            "buffer" : 0,
            "byteLength" : 1307808,
            "byteOffset" : 6993672
        },
        {
            "buffer" : 0,
            "byteLength" : 131328,
            "byteOffset" : 8301480
        },
        {
            "buffer" : 0,
            "byteLength" : 131328,
            "byteOffset" : 8432808
        },
        {
            "buffer" : 0,
            "byteLength" : 87552,
            "byteOffset" : 8564136
        },
        {
            "buffer" : 0,
            "byteLength" : 31104,
            "byteOffset" : 8651688
        },
        {
            "buffer" : 0,
            "byteLength" : 73872,
            "byteOffset" : 8682792
        },
        {
            "buffer" : 0,
            "byteLength" : 73872,
            "byteOffset" : 8756664
        },
        {
            "buffer" : 0,
            "byteLength" : 49248,
            "byteOffset" : 8830536
        },
        {
            "buffer" : 0,
            "byteLength" : 17496,
            "byteOffset" : 8879784
        },
        {
            "buffer" : 0,
            "byteLength" : 322848,
            "byteOffset" : 8897280
        },
        {
            "buffer" : 0,
            "byteLength" : 322848,
            "byteOffset" : 9220128
        },
        {
            "buffer" : 0,
            "byteLength" : 215232,
            "byteOffset" : 9542976
        },
        {
            "buffer" : 0,
            "byteLength" : 76464,
            "byteOffset" : 9758208
        },
        {
            "buffer" : 0,
            "byteLength" : 1459416,
            "byteOffset" : 9834672
        },
        {
            "buffer" : 0,
            "byteLength" : 1459416,
            "byteOffset" : 11294088
        },
        {
            "buffer" : 0,
            "byteLength" : 972944,
            "byteOffset" : 12753504
        },
        {
            "buffer" : 0,
            "byteLength" : 686784,
            "byteOffset" : 13726448
        }
    ],
    "samplers" : [
        {
            "magFilter" : 9729,
            "minFilter" : 9987
        }
    ],
    "buffers" : [
        {
            "byteLength" : 14413232,
            "uri" : "Islands01.bin"
        }
    ]
}
