{
    "asset" : {
        "generator" : "Khronos glTF Blender I/O v1.8.19",
        "version" : "2.0"
    },
    "scene" : 0,
    "scenes" : [
        {
            "name" : "Scene",
            "nodes" : [
                0
            ]
        }
    ],
    "nodes" : [
        {
            "mesh" : 0,
            "name" : "Lamp"
        }
    ],
    "materials" : [
        {
            "doubleSided" : true,
            "name" : "Lamp",
            "pbrMetallicRoughness" : {
                "baseColorFactor" : [
                    0.08970965445041656,
                    0.1055520623922348,
                    0.09353005886077881,
                    1
                ],
                "metallicFactor" : 0
            }
        }
    ],
    "meshes" : [
        {
            "name" : "Cube",
            "primitives" : [
                {
                    "attributes" : {
                        "POSITION" : 0,
                        "NORMAL" : 1,
                        "TEXCOORD_0" : 2
                    },
                    "indices" : 3,
                    "material" : 0
                }
            ]
        }
    ],
    "accessors" : [
        {
            "bufferView" : 0,
            "componentType" : 5126,
            "count" : 238,
            "max" : [
                0.20702193677425385,
                0.29626408219337463,
                0.532915472984314
            ],
            "min" : [
                -0.2070220559835434,
                -0.4620649218559265,
                -0.4973470866680145
            ],
            "type" : "VEC3"
        },
        {
            "bufferView" : 1,
            "componentType" : 5126,
            "count" : 238,
            "type" : "VEC3"
        },
        {
            "bufferView" : 2,
            "componentType" : 5126,
            "count" : 238,
            "type" : "VEC2"
        },
        {
            "bufferView" : 3,
            "componentType" : 5123,
            "count" : 336,
            "type" : "SCALAR"
        }
    ],
    "bufferViews" : [
        {
            "buffer" : 0,
            "byteLength" : 2856,
            "byteOffset" : 0
        },
        {
            "buffer" : 0,
            "byteLength" : 2856,
            "byteOffset" : 2856
        },
        {
            "buffer" : 0,
            "byteLength" : 1904,
            "byteOffset" : 5712
        },
        {
            "buffer" : 0,
            "byteLength" : 672,
            "byteOffset" : 7616
        }
    ],
    "buffers" : [
        {
            "byteLength" : 8288,
            "uri" : "Lamp.bin"
        }
    ]
}
