{
    "asset" : {
        "generator" : "Khronos glTF Blender I/O v1.7.33",
        "version" : "2.0"
    },
    "scene" : 0,
    "scenes" : [
        {
            "name" : "Scene",
            "nodes" : [
                0,
                1,
                2,
                3
            ]
        }
    ],
    "nodes" : [
        {
            "mesh" : 0,
            "name" : "Orb"
        },
        {
            "mesh" : 1,
            "name" : "Base"
        },
        {
            "mesh" : 2,
            "name" : "Sphere.001"
        },
        {
            "mesh" : 3,
            "name" : "Ring"
        }
    ],
    "materials" : [
        {
            "doubleSided" : true,
            "name" : "Base",
            "pbrMetallicRoughness" : {
                "baseColorFactor" : [
                    0.1406010091304779,
                    0.1406010091304779,
                    0.1406010091304779,
                    1
                ],
                "metallicFactor" : 0,
                "roughnessFactor" : 0.5
            }
        },
        {
            "doubleSided" : true,
            "name" : "Highlight",
            "pbrMetallicRoughness" : {
                "baseColorFactor" : [
                    0.800000011920929,
                    0.800000011920929,
                    0.800000011920929,
                    1
                ],
                "metallicFactor" : 0,
                "roughnessFactor" : 0.5
            }
        }
    ],
    "meshes" : [
        {
            "name" : "Sphere",
            "primitives" : [
                {
                    "attributes" : {
                        "POSITION" : 0,
                        "NORMAL" : 1,
                        "TEXCOORD_0" : 2
                    },
                    "indices" : 3,
                    "material" : 0
                }
            ]
        },
        {
            "name" : "Cube.001",
            "primitives" : [
                {
                    "attributes" : {
                        "POSITION" : 4,
                        "NORMAL" : 5,
                        "TEXCOORD_0" : 6
                    },
                    "indices" : 7,
                    "material" : 0
                },
                {
                    "attributes" : {
                        "POSITION" : 8,
                        "NORMAL" : 9,
                        "TEXCOORD_0" : 10
                    },
                    "indices" : 11,
                    "material" : 1
                }
            ]
        },
        {
            "name" : "Sphere.001",
            "primitives" : [
                {
                    "attributes" : {
                        "POSITION" : 12,
                        "NORMAL" : 13,
                        "TEXCOORD_0" : 14
                    },
                    "indices" : 3,
                    "material" : 1
                }
            ]
        },
        {
            "name" : "Circle.001",
            "primitives" : [
                {
                    "attributes" : {
                        "POSITION" : 15,
                        "NORMAL" : 16,
                        "TEXCOORD_0" : 17
                    },
                    "indices" : 18,
                    "material" : 1
                }
            ]
        }
    ],
    "accessors" : [
        {
            "bufferView" : 0,
            "componentType" : 5126,
            "count" : 151,
            "max" : [
                0.44800007343292236,
                1.9479999542236328,
                0.44800013303756714
            ],
            "min" : [
                -0.4479999542236328,
                1.0519999265670776,
                -0.44799989461898804
            ],
            "type" : "VEC3"
        },
        {
            "bufferView" : 1,
            "componentType" : 5126,
            "count" : 151,
            "type" : "VEC3"
        },
        {
            "bufferView" : 2,
            "componentType" : 5126,
            "count" : 151,
            "type" : "VEC2"
        },
        {
            "bufferView" : 3,
            "componentType" : 5123,
            "count" : 672,
            "type" : "SCALAR"
        },
        {
            "bufferView" : 4,
            "componentType" : 5126,
            "count" : 84,
            "max" : [
                1,
                0.6000000238418579,
                1
            ],
            "min" : [
                -1,
                0,
                -1
            ],
            "type" : "VEC3"
        },
        {
            "bufferView" : 5,
            "componentType" : 5126,
            "count" : 84,
            "type" : "VEC3"
        },
        {
            "bufferView" : 6,
            "componentType" : 5126,
            "count" : 84,
            "type" : "VEC2"
        },
        {
            "bufferView" : 7,
            "componentType" : 5123,
            "count" : 144,
            "type" : "SCALAR"
        },
        {
            "bufferView" : 8,
            "componentType" : 5126,
            "count" : 58,
            "max" : [
                0.7714952826499939,
                0.6000000238418579,
                0.7714954018592834
            ],
            "min" : [
                -0.7714951634407043,
                0.2999999523162842,
                -0.7714950442314148
            ],
            "type" : "VEC3"
        },
        {
            "bufferView" : 9,
            "componentType" : 5126,
            "count" : 58,
            "type" : "VEC3"
        },
        {
            "bufferView" : 10,
            "componentType" : 5126,
            "count" : 58,
            "type" : "VEC2"
        },
        {
            "bufferView" : 11,
            "componentType" : 5123,
            "count" : 144,
            "type" : "SCALAR"
        },
        {
            "bufferView" : 12,
            "componentType" : 5126,
            "count" : 151,
            "max" : [
                1.2000000476837158,
                2.700000047683716,
                1.2000001668930054
            ],
            "min" : [
                -1.1999999284744263,
                0.2999999523162842,
                -1.1999999284744263
            ],
            "type" : "VEC3"
        },
        {
            "bufferView" : 13,
            "componentType" : 5126,
            "count" : 151,
            "type" : "VEC3"
        },
        {
            "bufferView" : 14,
            "componentType" : 5126,
            "count" : 151,
            "type" : "VEC2"
        },
        {
            "bufferView" : 15,
            "componentType" : 5126,
            "count" : 110,
            "max" : [
                0.8647512197494507,
                2.435999870300293,
                1.1341273875586921e-07
            ],
            "min" : [
                -0.9359999895095825,
                0.5639998912811279,
                1.8328396578226602e-09
            ],
            "type" : "VEC3"
        },
        {
            "bufferView" : 16,
            "componentType" : 5126,
            "count" : 110,
            "type" : "VEC3"
        },
        {
            "bufferView" : 17,
            "componentType" : 5126,
            "count" : 110,
            "type" : "VEC2"
        },
        {
            "bufferView" : 18,
            "componentType" : 5123,
            "count" : 162,
            "type" : "SCALAR"
        }
    ],
    "bufferViews" : [
        {
            "buffer" : 0,
            "byteLength" : 1812,
            "byteOffset" : 0
        },
        {
            "buffer" : 0,
            "byteLength" : 1812,
            "byteOffset" : 1812
        },
        {
            "buffer" : 0,
            "byteLength" : 1208,
            "byteOffset" : 3624
        },
        {
            "buffer" : 0,
            "byteLength" : 1344,
            "byteOffset" : 4832
        },
        {
            "buffer" : 0,
            "byteLength" : 1008,
            "byteOffset" : 6176
        },
        {
            "buffer" : 0,
            "byteLength" : 1008,
            "byteOffset" : 7184
        },
        {
            "buffer" : 0,
            "byteLength" : 672,
            "byteOffset" : 8192
        },
        {
            "buffer" : 0,
            "byteLength" : 288,
            "byteOffset" : 8864
        },
        {
            "buffer" : 0,
            "byteLength" : 696,
            "byteOffset" : 9152
        },
        {
            "buffer" : 0,
            "byteLength" : 696,
            "byteOffset" : 9848
        },
        {
            "buffer" : 0,
            "byteLength" : 464,
            "byteOffset" : 10544
        },
        {
            "buffer" : 0,
            "byteLength" : 288,
            "byteOffset" : 11008
        },
        {
            "buffer" : 0,
            "byteLength" : 1812,
            "byteOffset" : 11296
        },
        {
            "buffer" : 0,
            "byteLength" : 1812,
            "byteOffset" : 13108
        },
        {
            "buffer" : 0,
            "byteLength" : 1208,
            "byteOffset" : 14920
        },
        {
            "buffer" : 0,
            "byteLength" : 1320,
            "byteOffset" : 16128
        },
        {
            "buffer" : 0,
            "byteLength" : 1320,
            "byteOffset" : 17448
        },
        {
            "buffer" : 0,
            "byteLength" : 880,
            "byteOffset" : 18768
        },
        {
            "buffer" : 0,
            "byteLength" : 324,
            "byteOffset" : 19648
        }
    ],
    "buffers" : [
        {
            "byteLength" : 19972,
            "uri" : "Small02.bin"
        }
    ]
}
