{
    "asset" : {
        "generator" : "Khronos glTF Blender I/O v1.7.33",
        "version" : "2.0"
    },
    "scene" : 0,
    "scenes" : [
        {
            "name" : "Scene",
            "nodes" : [
                0,
                1
            ]
        }
    ],
    "nodes" : [
        {
            "mesh" : 0,
            "name" : "Tower"
        },
        {
            "mesh" : 1,
            "name" : "Windows"
        }
    ],
    "materials" : [
        {
            "doubleSided" : true,
            "name" : "Base",
            "pbrMetallicRoughness" : {
                "baseColorFactor" : [
                    0.14952313899993896,
                    0.14952313899993896,
                    0.14952313899993896,
                    1
                ],
                "metallicFactor" : 0,
                "roughnessFactor" : 0.6581027507781982
            }
        },
        {
            "doubleSided" : true,
            "name" : "Highlight",
            "pbrMetallicRoughness" : {
                "baseColorFactor" : [
                    0.800000011920929,
                    0.800000011920929,
                    0.800000011920929,
                    1
                ],
                "metallicFactor" : 0,
                "roughnessFactor" : 0.104743093252182
            }
        }
    ],
    "meshes" : [
        {
            "name" : "Cube.001",
            "primitives" : [
                {
                    "attributes" : {
                        "POSITION" : 0,
                        "NORMAL" : 1,
                        "TEXCOORD_0" : 2
                    },
                    "indices" : 3,
                    "material" : 0
                }
            ]
        },
        {
            "name" : "Cube.003",
            "primitives" : [
                {
                    "attributes" : {
                        "POSITION" : 4,
                        "NORMAL" : 5,
                        "TEXCOORD_0" : 6
                    },
                    "indices" : 7,
                    "material" : 1
                }
            ]
        }
    ],
    "accessors" : [
        {
            "bufferView" : 0,
            "componentType" : 5126,
            "count" : 1096,
            "max" : [
                1.3095461130142212,
                5,
                1.3095461130142212
            ],
            "min" : [
                -1.3095461130142212,
                -0.03035699762403965,
                -1.3095461130142212
            ],
            "type" : "VEC3"
        },
        {
            "bufferView" : 1,
            "componentType" : 5126,
            "count" : 1096,
            "type" : "VEC3"
        },
        {
            "bufferView" : 2,
            "componentType" : 5126,
            "count" : 1096,
            "type" : "VEC2"
        },
        {
            "bufferView" : 3,
            "componentType" : 5123,
            "count" : 1608,
            "type" : "SCALAR"
        },
        {
            "bufferView" : 4,
            "componentType" : 5126,
            "count" : 2664,
            "max" : [
                0.8839585185050964,
                4.724869728088379,
                0.6000000238418579
            ],
            "min" : [
                -0.8839585185050964,
                0.6176776885986328,
                -0.800000011920929
            ],
            "type" : "VEC3"
        },
        {
            "bufferView" : 5,
            "componentType" : 5126,
            "count" : 2664,
            "type" : "VEC3"
        },
        {
            "bufferView" : 6,
            "componentType" : 5126,
            "count" : 2664,
            "type" : "VEC2"
        },
        {
            "bufferView" : 7,
            "componentType" : 5123,
            "count" : 3672,
            "type" : "SCALAR"
        }
    ],
    "bufferViews" : [
        {
            "buffer" : 0,
            "byteLength" : 13152,
            "byteOffset" : 0
        },
        {
            "buffer" : 0,
            "byteLength" : 13152,
            "byteOffset" : 13152
        },
        {
            "buffer" : 0,
            "byteLength" : 8768,
            "byteOffset" : 26304
        },
        {
            "buffer" : 0,
            "byteLength" : 3216,
            "byteOffset" : 35072
        },
        {
            "buffer" : 0,
            "byteLength" : 31968,
            "byteOffset" : 38288
        },
        {
            "buffer" : 0,
            "byteLength" : 31968,
            "byteOffset" : 70256
        },
        {
            "buffer" : 0,
            "byteLength" : 21312,
            "byteOffset" : 102224
        },
        {
            "buffer" : 0,
            "byteLength" : 7344,
            "byteOffset" : 123536
        }
    ],
    "buffers" : [
        {
            "byteLength" : 130880,
            "uri" : "Tower01.bin"
        }
    ]
}
