{
    "asset" : {
        "generator" : "Khronos glTF Blender I/O v1.8.19",
        "version" : "2.0"
    },
    "scene" : 0,
    "scenes" : [
        {
            "name" : "Scene",
            "nodes" : [
                0,
                1,
                2
            ]
        }
    ],
    "nodes" : [
        {
            "mesh" : 0,
            "name" : "Cube"
        },
        {
            "mesh" : 1,
            "name" : "Cube.001",
            "translation" : [
                0,
                0.19749222695827484,
                0
            ]
        },
        {
            "mesh" : 2,
            "name" : "Cube.002",
            "translation" : [
                0,
                0.4186849594116211,
                0
            ]
        }
    ],
    "materials" : [
        {
            "doubleSided" : true,
            "name" : "Base",
            "pbrMetallicRoughness" : {
                "baseColorFactor" : [
                    0.800000011920929,
                    0.800000011920929,
                    0.800000011920929,
                    1
                ],
                "metallicFactor" : 0,
                "roughnessFactor" : 0.5
            }
        },
        {
            "doubleSided" : true,
            "name" : "Highlight",
            "pbrMetallicRoughness" : {
                "baseColorFactor" : [
                    0.800000011920929,
                    0.800000011920929,
                    0.800000011920929,
                    1
                ],
                "metallicFactor" : 0,
                "roughnessFactor" : 0.5
            }
        }
    ],
    "meshes" : [
        {
            "name" : "Cube.001",
            "primitives" : [
                {
                    "attributes" : {
                        "POSITION" : 0,
                        "NORMAL" : 1,
                        "TEXCOORD_0" : 2
                    },
                    "indices" : 3,
                    "material" : 0
                }
            ]
        },
        {
            "name" : "Cube.002",
            "primitives" : [
                {
                    "attributes" : {
                        "POSITION" : 4,
                        "NORMAL" : 5,
                        "TEXCOORD_0" : 6
                    },
                    "indices" : 7,
                    "material" : 1
                }
            ]
        },
        {
            "name" : "Cube.003",
            "primitives" : [
                {
                    "attributes" : {
                        "POSITION" : 8,
                        "NORMAL" : 9,
                        "TEXCOORD_0" : 10
                    },
                    "indices" : 11
                }
            ]
        }
    ],
    "accessors" : [
        {
            "bufferView" : 0,
            "componentType" : 5126,
            "count" : 2462,
            "max" : [
                0.71664959192276,
                4.928676605224609,
                1.43329918384552
            ],
            "min" : [
                -0.71664959192276,
                0,
                -1.43329918384552
            ],
            "type" : "VEC3"
        },
        {
            "bufferView" : 1,
            "componentType" : 5126,
            "count" : 2462,
            "type" : "VEC3"
        },
        {
            "bufferView" : 2,
            "componentType" : 5126,
            "count" : 2462,
            "type" : "VEC2"
        },
        {
            "bufferView" : 3,
            "componentType" : 5123,
            "count" : 3756,
            "type" : "SCALAR"
        },
        {
            "bufferView" : 4,
            "componentType" : 5126,
            "count" : 96,
            "max" : [
                0.19749709963798523,
                4.46588134765625,
                0.9000000357627869
            ],
            "min" : [
                -0.19749709963798523,
                -0.06340807676315308,
                -0.9000000357627869
            ],
            "type" : "VEC3"
        },
        {
            "bufferView" : 5,
            "componentType" : 5126,
            "count" : 96,
            "type" : "VEC3"
        },
        {
            "bufferView" : 6,
            "componentType" : 5126,
            "count" : 96,
            "type" : "VEC2"
        },
        {
            "bufferView" : 7,
            "componentType" : 5123,
            "count" : 132,
            "type" : "SCALAR"
        },
        {
            "bufferView" : 8,
            "componentType" : 5126,
            "count" : 896,
            "max" : [
                0.5844892263412476,
                0.9237337708473206,
                0.2858071029186249
            ],
            "min" : [
                -0.5844892263412476,
                -0.04710162803530693,
                -1.2297306060791016
            ],
            "type" : "VEC3"
        },
        {
            "bufferView" : 9,
            "componentType" : 5126,
            "count" : 896,
            "type" : "VEC3"
        },
        {
            "bufferView" : 10,
            "componentType" : 5126,
            "count" : 896,
            "type" : "VEC2"
        },
        {
            "bufferView" : 11,
            "componentType" : 5123,
            "count" : 1260,
            "type" : "SCALAR"
        }
    ],
    "bufferViews" : [
        {
            "buffer" : 0,
            "byteLength" : 29544,
            "byteOffset" : 0
        },
        {
            "buffer" : 0,
            "byteLength" : 29544,
            "byteOffset" : 29544
        },
        {
            "buffer" : 0,
            "byteLength" : 19696,
            "byteOffset" : 59088
        },
        {
            "buffer" : 0,
            "byteLength" : 7512,
            "byteOffset" : 78784
        },
        {
            "buffer" : 0,
            "byteLength" : 1152,
            "byteOffset" : 86296
        },
        {
            "buffer" : 0,
            "byteLength" : 1152,
            "byteOffset" : 87448
        },
        {
            "buffer" : 0,
            "byteLength" : 768,
            "byteOffset" : 88600
        },
        {
            "buffer" : 0,
            "byteLength" : 264,
            "byteOffset" : 89368
        },
        {
            "buffer" : 0,
            "byteLength" : 10752,
            "byteOffset" : 89632
        },
        {
            "buffer" : 0,
            "byteLength" : 10752,
            "byteOffset" : 100384
        },
        {
            "buffer" : 0,
            "byteLength" : 7168,
            "byteOffset" : 111136
        },
        {
            "buffer" : 0,
            "byteLength" : 2520,
            "byteOffset" : 118304
        }
    ],
    "buffers" : [
        {
            "byteLength" : 120824,
            "uri" : "Tower03.bin"
        }
    ]
}
