{
    "asset" : {
        "generator" : "Khronos glTF Blender I/O v1.7.33",
        "version" : "2.0"
    },
    "scene" : 0,
    "scenes" : [
        {
            "name" : "Scene",
            "nodes" : [
                0,
                1,
                2,
                3,
                4,
                5,
                6,
                7
            ]
        }
    ],
    "nodes" : [
        {
            "mesh" : 0,
            "name" : "Core"
        },
        {
            "mesh" : 1,
            "name" : "Discs",
            "translation" : [
                0,
                -1.3000000715255737,
                0
            ]
        },
        {
            "mesh" : 2,
            "name" : "Discs.001",
            "translation" : [
                0,
                -1.3000000715255737,
                0
            ]
        },
        {
            "mesh" : 3,
            "name" : "Discs.002",
            "translation" : [
                0,
                -1.3000000715255737,
                0
            ]
        },
        {
            "mesh" : 4,
            "name" : "Discs.003",
            "translation" : [
                0,
                -1.3000000715255737,
                0
            ]
        },
        {
            "mesh" : 5,
            "name" : "Discs.004",
            "translation" : [
                0,
                -1.3000000715255737,
                0
            ]
        },
        {
            "mesh" : 6,
            "name" : "Discs.005",
            "translation" : [
                0,
                -1.3000000715255737,
                0
            ]
        },
        {
            "mesh" : 7,
            "name" : "Discs.006",
            "translation" : [
                0,
                -1.3000000715255737,
                0
            ]
        }
    ],
    "materials" : [
        {
            "doubleSided" : true,
            "name" : "Column",
            "normalTexture" : {
                "index" : 0
            },
            "pbrMetallicRoughness" : {
                "baseColorTexture" : {
                    "index" : 1
                },
                "metallicFactor" : 0,
                "roughnessFactor" : 0.5
            }
        }
    ],
    "meshes" : [
        {
            "name" : "Cylinder",
            "primitives" : [
                {
                    "attributes" : {
                        "POSITION" : 0,
                        "NORMAL" : 1,
                        "TEXCOORD_0" : 2
                    },
                    "indices" : 3,
                    "material" : 0
                }
            ]
        },
        {
            "name" : "Circle",
            "primitives" : [
                {
                    "attributes" : {
                        "POSITION" : 4,
                        "NORMAL" : 5,
                        "TEXCOORD_0" : 6
                    },
                    "indices" : 7
                }
            ]
        },
        {
            "name" : "Circle.001",
            "primitives" : [
                {
                    "attributes" : {
                        "POSITION" : 8,
                        "NORMAL" : 9,
                        "TEXCOORD_0" : 10
                    },
                    "indices" : 11
                }
            ]
        },
        {
            "name" : "Circle.002",
            "primitives" : [
                {
                    "attributes" : {
                        "POSITION" : 12,
                        "NORMAL" : 13,
                        "TEXCOORD_0" : 14
                    },
                    "indices" : 15
                }
            ]
        },
        {
            "name" : "Circle.003",
            "primitives" : [
                {
                    "attributes" : {
                        "POSITION" : 16,
                        "NORMAL" : 17,
                        "TEXCOORD_0" : 18
                    },
                    "indices" : 19
                }
            ]
        },
        {
            "name" : "Circle.004",
            "primitives" : [
                {
                    "attributes" : {
                        "POSITION" : 20,
                        "NORMAL" : 21,
                        "TEXCOORD_0" : 22
                    },
                    "indices" : 23
                }
            ]
        },
        {
            "name" : "Circle.005",
            "primitives" : [
                {
                    "attributes" : {
                        "POSITION" : 24,
                        "NORMAL" : 25,
                        "TEXCOORD_0" : 26
                    },
                    "indices" : 27
                }
            ]
        },
        {
            "name" : "Circle.006",
            "primitives" : [
                {
                    "attributes" : {
                        "POSITION" : 28,
                        "NORMAL" : 29,
                        "TEXCOORD_0" : 30
                    },
                    "indices" : 31
                }
            ]
        }
    ],
    "textures" : [
        {
            "sampler" : 0,
            "source" : 0
        },
        {
            "sampler" : 0,
            "source" : 1
        }
    ],
    "images" : [
        {
            "mimeType" : "image/png",
            "name" : "nrm_Core",
            "uri" : "Textures/nrm_Core.png"
        },
        {
            "mimeType" : "image/png",
            "name" : "alb_Core",
            "uri" : "Textures/alb_Core.png"
        }
    ],
    "accessors" : [
        {
            "bufferView" : 0,
            "componentType" : 5126,
            "count" : 324,
            "max" : [
                0.5208178162574768,
                1.5624535083770752,
                0.5208178162574768
            ],
            "min" : [
                -0.5208178162574768,
                -1.5624535083770752,
                -0.5208178162574768
            ],
            "type" : "VEC3"
        },
        {
            "bufferView" : 1,
            "componentType" : 5126,
            "count" : 324,
            "type" : "VEC3"
        },
        {
            "bufferView" : 2,
            "componentType" : 5126,
            "count" : 324,
            "type" : "VEC2"
        },
        {
            "bufferView" : 3,
            "componentType" : 5123,
            "count" : 756,
            "type" : "SCALAR"
        },
        {
            "bufferView" : 4,
            "componentType" : 5126,
            "count" : 464,
            "max" : [
                0.9121679067611694,
                0.04999680817127228,
                1.3000000715255737
            ],
            "min" : [
                -1.3000000715255737,
                -0.04999681934714317,
                -1.3000000715255737
            ],
            "type" : "VEC3"
        },
        {
            "bufferView" : 5,
            "componentType" : 5126,
            "count" : 464,
            "type" : "VEC3"
        },
        {
            "bufferView" : 6,
            "componentType" : 5126,
            "count" : 464,
            "type" : "VEC2"
        },
        {
            "bufferView" : 7,
            "componentType" : 5123,
            "count" : 1236,
            "type" : "SCALAR"
        },
        {
            "bufferView" : 8,
            "componentType" : 5126,
            "count" : 464,
            "max" : [
                0.9121679067611694,
                0.44999682903289795,
                1.3000000715255737
            ],
            "min" : [
                -1.3000000715255737,
                0.350003182888031,
                -1.3000000715255737
            ],
            "type" : "VEC3"
        },
        {
            "bufferView" : 9,
            "componentType" : 5126,
            "count" : 464,
            "type" : "VEC3"
        },
        {
            "bufferView" : 10,
            "componentType" : 5126,
            "count" : 464,
            "type" : "VEC2"
        },
        {
            "bufferView" : 11,
            "componentType" : 5123,
            "count" : 1236,
            "type" : "SCALAR"
        },
        {
            "bufferView" : 12,
            "componentType" : 5126,
            "count" : 464,
            "max" : [
                0.9121679067611694,
                0.84999680519104,
                1.3000000715255737
            ],
            "min" : [
                -1.3000000715255737,
                0.7500031590461731,
                -1.3000000715255737
            ],
            "type" : "VEC3"
        },
        {
            "bufferView" : 13,
            "componentType" : 5126,
            "count" : 464,
            "type" : "VEC3"
        },
        {
            "bufferView" : 14,
            "componentType" : 5126,
            "count" : 464,
            "type" : "VEC2"
        },
        {
            "bufferView" : 15,
            "componentType" : 5123,
            "count" : 1236,
            "type" : "SCALAR"
        },
        {
            "bufferView" : 16,
            "componentType" : 5126,
            "count" : 464,
            "max" : [
                0.9121679067611694,
                1.2499969005584717,
                1.3000000715255737
            ],
            "min" : [
                -1.3000000715255737,
                1.15000319480896,
                -1.3000000715255737
            ],
            "type" : "VEC3"
        },
        {
            "bufferView" : 17,
            "componentType" : 5126,
            "count" : 464,
            "type" : "VEC3"
        },
        {
            "bufferView" : 18,
            "componentType" : 5126,
            "count" : 464,
            "type" : "VEC2"
        },
        {
            "bufferView" : 19,
            "componentType" : 5123,
            "count" : 1236,
            "type" : "SCALAR"
        },
        {
            "bufferView" : 20,
            "componentType" : 5126,
            "count" : 464,
            "max" : [
                0.9121679067611694,
                1.6499968767166138,
                1.3000000715255737
            ],
            "min" : [
                -1.3000000715255737,
                1.550003170967102,
                -1.3000000715255737
            ],
            "type" : "VEC3"
        },
        {
            "bufferView" : 21,
            "componentType" : 5126,
            "count" : 464,
            "type" : "VEC3"
        },
        {
            "bufferView" : 22,
            "componentType" : 5126,
            "count" : 464,
            "type" : "VEC2"
        },
        {
            "bufferView" : 23,
            "componentType" : 5123,
            "count" : 1236,
            "type" : "SCALAR"
        },
        {
            "bufferView" : 24,
            "componentType" : 5126,
            "count" : 464,
            "max" : [
                0.9121679067611694,
                2.049996852874756,
                1.3000000715255737
            ],
            "min" : [
                -1.3000000715255737,
                1.9500031471252441,
                -1.3000000715255737
            ],
            "type" : "VEC3"
        },
        {
            "bufferView" : 25,
            "componentType" : 5126,
            "count" : 464,
            "type" : "VEC3"
        },
        {
            "bufferView" : 26,
            "componentType" : 5126,
            "count" : 464,
            "type" : "VEC2"
        },
        {
            "bufferView" : 27,
            "componentType" : 5123,
            "count" : 1236,
            "type" : "SCALAR"
        },
        {
            "bufferView" : 28,
            "componentType" : 5126,
            "count" : 464,
            "max" : [
                0.9121679067611694,
                2.4499969482421875,
                1.3000000715255737
            ],
            "min" : [
                -1.3000000715255737,
                2.350003242492676,
                -1.3000000715255737
            ],
            "type" : "VEC3"
        },
        {
            "bufferView" : 29,
            "componentType" : 5126,
            "count" : 464,
            "type" : "VEC3"
        },
        {
            "bufferView" : 30,
            "componentType" : 5126,
            "count" : 464,
            "type" : "VEC2"
        },
        {
            "bufferView" : 31,
            "componentType" : 5123,
            "count" : 1236,
            "type" : "SCALAR"
        }
    ],
    "bufferViews" : [
        {
            "buffer" : 0,
            "byteLength" : 3888,
            "byteOffset" : 0
        },
        {
            "buffer" : 0,
            "byteLength" : 3888,
            "byteOffset" : 3888
        },
        {
            "buffer" : 0,
            "byteLength" : 2592,
            "byteOffset" : 7776
        },
        {
            "buffer" : 0,
            "byteLength" : 1512,
            "byteOffset" : 10368
        },
        {
            "buffer" : 0,
            "byteLength" : 5568,
            "byteOffset" : 11880
        },
        {
            "buffer" : 0,
            "byteLength" : 5568,
            "byteOffset" : 17448
        },
        {
            "buffer" : 0,
            "byteLength" : 3712,
            "byteOffset" : 23016
        },
        {
            "buffer" : 0,
            "byteLength" : 2472,
            "byteOffset" : 26728
        },
        {
            "buffer" : 0,
            "byteLength" : 5568,
            "byteOffset" : 29200
        },
        {
            "buffer" : 0,
            "byteLength" : 5568,
            "byteOffset" : 34768
        },
        {
            "buffer" : 0,
            "byteLength" : 3712,
            "byteOffset" : 40336
        },
        {
            "buffer" : 0,
            "byteLength" : 2472,
            "byteOffset" : 44048
        },
        {
            "buffer" : 0,
            "byteLength" : 5568,
            "byteOffset" : 46520
        },
        {
            "buffer" : 0,
            "byteLength" : 5568,
            "byteOffset" : 52088
        },
        {
            "buffer" : 0,
            "byteLength" : 3712,
            "byteOffset" : 57656
        },
        {
            "buffer" : 0,
            "byteLength" : 2472,
            "byteOffset" : 61368
        },
        {
            "buffer" : 0,
            "byteLength" : 5568,
            "byteOffset" : 63840
        },
        {
            "buffer" : 0,
            "byteLength" : 5568,
            "byteOffset" : 69408
        },
        {
            "buffer" : 0,
            "byteLength" : 3712,
            "byteOffset" : 74976
        },
        {
            "buffer" : 0,
            "byteLength" : 2472,
            "byteOffset" : 78688
        },
        {
            "buffer" : 0,
            "byteLength" : 5568,
            "byteOffset" : 81160
        },
        {
            "buffer" : 0,
            "byteLength" : 5568,
            "byteOffset" : 86728
        },
        {
            "buffer" : 0,
            "byteLength" : 3712,
            "byteOffset" : 92296
        },
        {
            "buffer" : 0,
            "byteLength" : 2472,
            "byteOffset" : 96008
        },
        {
            "buffer" : 0,
            "byteLength" : 5568,
            "byteOffset" : 98480
        },
        {
            "buffer" : 0,
            "byteLength" : 5568,
            "byteOffset" : 104048
        },
        {
            "buffer" : 0,
            "byteLength" : 3712,
            "byteOffset" : 109616
        },
        {
            "buffer" : 0,
            "byteLength" : 2472,
            "byteOffset" : 113328
        },
        {
            "buffer" : 0,
            "byteLength" : 5568,
            "byteOffset" : 115800
        },
        {
            "buffer" : 0,
            "byteLength" : 5568,
            "byteOffset" : 121368
        },
        {
            "buffer" : 0,
            "byteLength" : 3712,
            "byteOffset" : 126936
        },
        {
            "buffer" : 0,
            "byteLength" : 2472,
            "byteOffset" : 130648
        }
    ],
    "samplers" : [
        {
            "magFilter" : 9729,
            "minFilter" : 9987
        }
    ],
    "buffers" : [
        {
            "byteLength" : 133120,
            "uri" : "DiscCylinder2.bin"
        }
    ]
}
